<?xml version="1.0" standalone="no"?>
<!DOCTYPE svg PUBLIC "-//W3C//DTD SVG 20010904//EN"
 "http://www.w3.org/TR/2001/REC-SVG-20010904/DTD/svg10.dtd">
<svg version="1.0" xmlns="http://www.w3.org/2000/svg"
 width="640.000000pt" height="640.000000pt" viewBox="0 0 640.000000 640.000000"
 preserveAspectRatio="xMidYMid meet">
<g transform="translate(0.000000,640.000000) scale(0.100000,-0.100000)"
fill="#002a85" stroke="none">
<path d="M0 3195 l7244 -2135 -4530 7840 534 1230 23209 -3360 440 12221 3336 9 2330 -410 110
-25z m3322 1463 c59 -29 71 -39 95 -85 16 -29 34 -53 40 -53 7 0 24 -18 39
-39 24 -37 27 -39 60 -30 38 11 54 6 54 -17 0 -17 -1 -18 84 50 27 22 39 26
49 17 8 -6 18 -7 22 -3 5 4 5 -1 2 -10 -11 -31 10 -19 23 13 8 17 18 28 26 25
7 -3 14 0 17 7 5 16 86 -12 101 -35 6 -10 14 -18 18 -18 11 0 -3 34 -20 48
-14 11 -14 12 2 12 12 0 16 5 11 19 -4 14 1 21 22 29 61 23 66 23 59 6 -10
-25 5 -94 20 -94 17 0 18 -19 2 -25 -7 -2 -26 -10 -43 -16 -16 -7 -40 -11 -52
-10 -17 2 -23 -3 -23 -19 0 -27 29 -38 45 -16 11 14 13 15 19 1 8 -22 37 -19
43 5 6 22 11 24 31 12 7 -5 10 -16 7 -24 -6 -16 -32 -24 -107 -33 -67 -8 -125
-48 -97 -66 20 -13 31 -11 23 4 -6 9 -4 9 8 -1 11 -9 18 -10 23 -2 3 5 11 10
16 10 6 0 7 -6 2 -12 -4 -7 -8 -17 -8 -23 0 -5 -9 -9 -19 -7 -10 2 -28 -5 -40
-16 -11 -11 -34 -28 -51 -37 -25 -16 -23 -12 15 28 24 26 40 47 35 47 -6 0
-22 -14 -37 -32 -14 -18 -30 -29 -35 -25 -4 5 3 18 16 29 32 25 37 61 7 52
-27 -8 -77 -55 -74 -69 3 -10 91 -91 176 -162 20 -17 54 -39 75 -49 37 -18 39
-18 73 1 34 18 37 18 49 2 17 -23 22 -22 30 10 12 51 123 131 215 155 81 21
78 22 99 -13 25 -40 26 -68 6 -95 -23 -31 -18 -37 29 -30 l44 7 39 -63 c60
-95 169 -332 188 -411 6 -22 2 -31 -19 -48 l-27 -21 35 -33 c51 -47 50 -105
-3 -109 -9 -1 -41 -14 -71 -28 -98 -48 -107 -50 -114 -25 -11 41 -7 49 16 41
21 -6 21 -5 9 10 -8 9 -21 14 -30 11 -23 -7 38 43 73 60 16 8 37 15 48 15 25
0 23 27 -4 36 -12 3 -28 13 -36 21 -13 12 -18 11 -43 -12 -15 -15 -30 -38 -34
-52 -3 -14 -9 -23 -12 -19 -3 3 -13 0 -21 -7 -8 -6 11 24 42 68 l58 80 -5 86
c-4 79 -7 90 -47 152 -80 128 -172 180 -320 181 -101 1 -142 -8 -134 -29 4
-11 -3 -19 -25 -26 -23 -8 -31 -17 -31 -35 0 -28 24 -32 55 -11 28 19 64 27
71 16 6 -11 -60 -41 -93 -43 -29 -1 -29 -7 2 -36 24 -22 27 -23 92 -11 67 11
118 5 146 -17 7 -5 44 -12 83 -14 79 -6 111 -23 138 -73 19 -35 26 -108 11
-114 -6 -1 -9 10 -7 26 4 36 -32 90 -76 116 -34 20 -149 40 -235 40 -36 0 -54
-6 -70 -21 l-21 -21 26 -68 c31 -80 52 -144 54 -158 6 -82 20 -125 55 -175 22
-31 39 -61 39 -68 0 -6 7 -30 16 -52 14 -34 19 -38 35 -30 17 10 18 6 16 -59
-1 -45 2 -74 11 -83 6 -6 12 -23 12 -37 0 -15 8 -35 17 -46 l16 -20 -8 20
c-17 45 -17 70 0 102 13 23 25 33 41 33 13 0 47 10 76 22 29 11 65 22 79 23
14 2 45 12 69 24 24 11 49 21 56 21 17 0 26 -30 13 -46 -25 -31 33 -128 71
-117 11 3 10 1 -2 -7 -10 -6 -20 -10 -23 -10 -3 0 -19 -7 -36 -16 -40 -20 -47
-12 -13 15 20 16 23 21 10 21 -10 0 -33 -17 -52 -38 -19 -21 -42 -38 -52 -37
-30 4 -49 15 -49 30 0 18 -35 85 -45 85 -3 0 5 -20 19 -45 13 -25 20 -45 14
-45 -16 0 -62 -50 -56 -61 4 -5 -1 -9 -9 -9 -25 0 -86 -41 -86 -58 0 -10 5
-34 11 -55 11 -40 4 -62 -11 -37 -15 24 -24 -14 -12 -49 6 -16 10 -59 9 -95
-2 -57 -6 -68 -32 -96 -25 -26 -30 -28 -38 -14 -5 9 -10 23 -11 31 -1 8 -7 18
-13 21 -9 6 -18 33 -28 87 -2 11 -4 22 -4 24 -1 2 -10 -4 -22 -15 -19 -17 -19
-19 -3 -31 15 -11 13 -12 -14 -10 -17 1 -27 6 -24 12 12 20 11 95 -1 95 -14 1
-87 93 -87 110 0 9 21 10 83 5 45 -4 79 -4 76 -1 -4 4 -31 9 -60 11 -30 2 -75
7 -101 10 -59 8 -70 -8 -39 -60 l20 -35 -22 4 c-12 3 -26 5 -32 5 -5 1 -3 6 5
11 10 6 2 7 -25 3 -22 -3 -37 -2 -33 2 4 5 3 14 -2 20 -11 14 -3 45 11 45 5 0
9 11 9 24 0 20 12 30 68 58 60 31 67 38 70 67 3 30 2 32 -20 26 -29 -9 -250
-123 -263 -136 -17 -17 -24 -10 -66 64 -24 39 -44 74 -46 76 -2 2 -12 -4 -23
-14 -11 -10 -18 -21 -15 -23 3 -3 11 3 19 13 13 18 15 17 31 -15 10 -19 26
-49 37 -69 19 -34 19 -35 1 -59 -11 -14 -26 -27 -34 -30 -11 -3 -11 -1 1 8 13
10 13 11 0 7 -8 -2 -15 -9 -15 -16 0 -13 -32 -41 -47 -41 -4 0 -4 7 -1 17 4
11 3 14 -5 9 -7 -4 -12 -1 -12 9 0 8 -7 18 -16 22 -8 3 -13 11 -10 18 3 8 -2
16 -11 19 -9 4 -13 13 -9 22 3 8 2 12 -4 9 -6 -3 -10 -1 -10 4 0 6 3 11 8 11
13 1 55 40 49 46 -3 4 -13 -1 -22 -10 -18 -18 -35 -21 -35 -7 0 5 9 13 20 16
11 4 37 24 57 46 20 21 43 39 51 39 20 0 142 61 142 71 0 4 -4 10 -8 13 -14 9
-1 66 18 76 15 8 18 4 24 -30 3 -22 9 -40 12 -40 15 0 44 22 44 34 0 17 27 29
35 16 4 -6 13 -10 22 -10 13 0 14 2 2 17 -12 15 -12 16 3 10 10 -3 17 -3 16 1
-1 4 1 25 5 47 4 22 3 63 -1 90 -8 48 -7 51 22 77 l31 27 -69 -24 c-39 -13
-74 -22 -78 -19 -4 3 -8 1 -8 -5 0 -6 -7 -8 -15 -5 -25 10 -28 -22 -6 -65 12
-22 21 -46 21 -54 0 -8 -28 -20 -72 -32 -40 -10 -104 -29 -143 -43 -65 -23
-70 -23 -80 -7 -5 9 -16 24 -23 33 -11 15 -12 12 -7 -15 4 -18 3 -33 -2 -33
-11 0 -46 70 -39 77 2 3 -5 14 -15 24 -15 15 -19 28 -14 52 5 25 4 29 -5 17
-9 -13 -10 -12 -8 5 1 11 -5 31 -15 45 -9 13 -17 30 -17 37 0 7 -4 13 -10 13
-5 0 -12 17 -16 38 -4 20 -15 60 -25 87 -9 28 -21 66 -24 85 -4 19 -11 40 -15
45 -4 6 -11 28 -15 50 -8 46 -25 72 -35 55 -4 -6 -18 5 -33 27 -29 40 -24 52
23 53 14 0 42 6 64 14 l38 13 -51 7 c-27 4 -53 12 -57 18 -5 8 24 9 102 6
l109 -5 -50 19 c-27 10 -58 21 -67 24 -23 8 -13 24 14 24 20 0 20 1 5 18 -10
10 -17 22 -17 27 0 16 -43 55 -61 55 -10 0 -21 5 -24 10 -4 6 5 10 20 10 16 0
24 4 20 10 -4 6 -2 17 4 24 9 11 5 16 -20 25 -18 6 -47 11 -65 11 -40 0 -48
18 -21 48 11 12 15 22 9 22 -16 0 -15 35 2 49 10 9 16 8 26 -4 14 -17 40 -20
40 -5 0 6 -5 10 -11 10 -5 0 -7 5 -4 10 11 18 -17 42 -42 35 -13 -3 -23 -1
-23 4 0 5 10 11 23 13 22 3 39 48 18 48 -14 0 -246 -114 -267 -131 -20 -16
-34 -1 -69 79 -13 28 -29 52 -35 52 -7 0 0 -20 14 -47 15 -25 24 -54 21 -64
-3 -9 -1 -20 4 -24 7 -4 9 1 5 12 -5 17 -5 17 6 0 15 -24 9 -31 -66 -73 -62
-35 -65 -38 -59 -68 4 -22 -7 -7 -39 49 -65 114 -63 123 32 180 87 53 93 61
85 92 -6 27 5 30 23 6 11 -15 13 -15 13 -3 1 8 -8 26 -19 40 -51 65 2 127 110
129 31 1 65 -9 112 -31z m655 -23 c9 -24 -1 -27 -15 -5 -8 13 -8 20 -2 20 6 0
13 -7 17 -15z m141 -183 c3 -16 -2 -22 -16 -22 -19 0 -36 32 -24 45 13 12 37
-1 40 -23z m-813 -92 c3 -5 -1 -10 -10 -10 -12 0 -14 -7 -10 -27 l6 -28 -16
29 c-14 24 -15 30 -3 37 17 11 26 11 33 -1z m669 -5 c-4 -8 -11 -15 -16 -15
-6 0 -5 6 2 15 7 8 14 15 16 15 2 0 1 -7 -2 -15z m6 -58 c0 -1 -26 -27 -57
-57 l-58 -55 55 58 c50 53 60 62 60 54z m-780 -58 c0 -5 5 -7 11 -3 6 3 15 0
20 -7 5 -8 9 -9 9 -3 0 12 75 12 87 0 12 -11 -31 -35 -64 -36 -20 0 -36 6 -42
18 -15 25 -13 9 4 -32 13 -31 13 -36 1 -36 -8 0 -17 8 -21 19 -3 10 -14 26
-25 36 -15 13 -17 22 -9 36 11 20 29 26 29 8z m-142 -130 l2 -34 -15 25 c-18
31 -19 53 -2 48 6 -3 13 -20 15 -39z m-234 -114 c26 -47 45 -89 42 -93 -2 -4
-65 -36 -140 -72 -75 -36 -136 -71 -136 -77 0 -17 11 -16 35 0 32 21 98 37
155 37 30 0 84 10 122 22 56 18 73 29 95 61 33 48 69 77 96 77 11 0 47 -13 81
-29 33 -16 75 -34 91 -40 28 -11 95 -64 95 -76 0 -10 -44 1 -82 20 -21 10 -40
16 -44 13 -13 -14 9 -47 40 -62 33 -16 54 -34 55 -49 0 -4 14 -24 32 -45 l31
-37 -6 33 c-3 21 -2 31 4 27 6 -3 10 -13 10 -21 0 -8 12 -24 27 -37 15 -12 39
-34 54 -49 29 -30 99 -167 99 -195 0 -10 12 -29 27 -43 31 -30 53 -78 53 -119
0 -17 8 -46 17 -66 13 -27 14 -38 5 -47 -8 -8 -8 -14 2 -22 9 -7 12 -24 9 -49
-5 -32 -11 -40 -46 -57 -22 -11 -42 -20 -44 -20 -2 0 -8 12 -14 27 -8 22 -12
24 -20 13 -8 -13 -10 -13 -20 0 -8 11 -9 2 -5 -37 4 -31 2 -54 -4 -58 -5 -3
-12 0 -15 7 -20 58 -28 72 -32 56 -2 -9 0 -25 6 -36 11 -20 4 -62 -10 -62 -5
0 -9 7 -9 15 0 9 -6 12 -15 9 -8 -4 -22 0 -31 7 -13 10 -17 10 -25 -2 -5 -8
-9 -22 -9 -31 0 -9 -5 -29 -11 -45 -10 -25 -12 -26 -23 -11 -10 13 -16 14 -24
6 -9 -9 -15 -3 -25 21 l-14 33 -7 -51 c-7 -54 -30 -77 -66 -66 -10 3 -21 1
-25 -5 -13 -22 -41 10 -64 74 -22 63 -46 93 -109 135 -11 8 -19 17 -17 21 6 9
-76 60 -107 67 -16 3 -28 8 -28 11 0 10 67 79 101 105 18 13 20 17 6 17 -22 0
-22 41 0 88 13 27 14 37 4 40 -7 2 -17 16 -22 30 l-10 26 -40 -47 c-41 -47
-73 -66 -45 -25 17 24 12 63 -12 91 -24 27 -32 20 -32 -25 -1 -49 -13 -68 -53
-86 -36 -16 -42 -15 -27 3 17 20 20 163 4 206 l-12 34 -1 -39 c-1 -22 -8 -66
-17 -98 -14 -48 -19 -56 -31 -47 -10 9 -18 8 -33 -6 -10 -9 -24 -14 -31 -9 -7
4 -10 3 -6 -3 6 -10 -51 -49 -60 -40 -2 3 5 15 16 26 21 21 28 41 14 41 -4 0
-18 -12 -30 -27 l-23 -28 5 25 c4 18 0 31 -14 44 -21 19 -41 14 -41 -10 0 -18
-48 -37 -69 -28 -30 13 -43 13 -37 -1 3 -9 0 -12 -9 -9 -8 3 -15 15 -17 27 -8
59 -51 -13 -71 -121 -10 -49 -11 -74 -3 -82 7 -7 5 -10 -8 -10 -9 0 -14 -4
-11 -10 3 -5 18 -10 33 -10 20 0 23 -3 12 -9 -8 -6 -17 -8 -21 -5 -4 2 -10 0
-13 -5 -3 -5 6 -16 20 -26 14 -9 33 -24 43 -34 10 -10 25 -21 32 -24 9 -4 10
-8 4 -14 -24 -19 -8 -102 16 -87 5 3 6 -3 3 -13 -5 -17 -5 -17 8 -1 11 13 22
15 51 8 22 -4 39 -4 43 1 3 5 10 6 16 3 6 -4 6 -10 -1 -17 -20 -20 -12 -24 37
-21 62 3 138 42 207 104 38 35 64 50 83 50 40 -1 109 -35 167 -84 53 -45 111
-138 99 -157 -3 -6 -21 -17 -40 -25 -18 -7 -41 -27 -51 -44 -21 -36 -31 -38
-43 -6 -14 39 -30 41 -58 8 l-26 -30 -38 30 c-35 27 -38 28 -38 9 0 -11 5 -23
10 -26 12 -7 14 -92 2 -99 -4 -2 -14 -1 -22 4 -9 5 -19 5 -27 -1 -14 -12 -62
17 -63 37 0 7 -7 15 -16 18 -13 5 -14 1 -9 -24 5 -22 3 -30 -7 -30 -10 0 -10
-2 1 -9 15 -10 25 -61 11 -61 -4 0 -6 -9 -3 -20 6 -22 -8 -26 -37 -10 -15 8
-18 7 -14 -3 3 -9 -6 -13 -35 -12 -38 0 -42 3 -66 47 -14 26 -31 51 -38 55 -7
4 -5 -3 4 -17 15 -24 14 -38 -9 -100 -3 -8 -6 -22 -6 -30 -1 -11 -17 -15 -69
-17 -37 -1 -76 -7 -87 -13 -15 -8 -18 -7 -15 3 4 8 -4 13 -24 15 -38 3 -47
-12 -20 -31 20 -15 20 -15 -12 -22 -18 -4 -35 -4 -36 1 -7 19 -22 38 -27 33
-3 -2 -1 -22 4 -44 5 -22 8 -41 6 -42 -2 -2 -13 17 -26 42 -13 24 -32 53 -44
62 -12 11 -16 12 -9 3 6 -8 14 -33 18 -55 5 -30 4 -36 -4 -25 -9 13 -11 13
-11 -2 0 -9 5 -18 11 -20 6 -2 2 -20 -10 -48 l-21 -45 -1 40 c-2 96 -97 200
-181 197 l-43 -1 25 19 c14 10 32 26 40 35 8 9 26 26 39 38 13 12 33 31 45 43
30 30 60 44 95 44 19 0 32 6 36 18 3 9 24 29 45 45 l40 27 -16 38 c-25 59 -27
69 -10 48 21 -26 22 -2 1 48 -16 38 -11 47 11 19 20 -26 17 -1 -6 52 -23 53
-24 59 -10 50 5 -3 7 0 4 9 -3 9 2 17 15 21 15 4 21 15 21 35 0 46 -8 57 -39
52 -26 -3 -30 0 -41 32 -14 43 -28 45 -57 8 -45 -57 -84 -96 -81 -83 2 8 -5
24 -17 37 -20 23 -20 23 -28 2 -4 -11 -13 -18 -20 -15 -8 3 -14 -3 -14 -14 -1
-10 4 -19 12 -19 15 0 28 -27 19 -41 -3 -5 -10 -7 -15 -3 -5 3 -17 0 -26 -8
-15 -12 -16 -8 -11 37 5 41 3 52 -14 67 -19 16 -22 17 -33 1 -11 -14 -13 -13
-18 8 l-7 24 -16 -23 c-9 -13 -27 -28 -42 -33 -20 -8 -29 -6 -49 12 -19 19
-23 32 -23 83 l0 60 -60 58 c-54 53 -63 58 -107 60 l-48 2 48 3 c37 3 57 -2
96 -23 l49 -28 39 27 c22 15 45 27 52 27 8 0 32 21 55 47 41 47 143 103 187
103 12 0 37 9 55 21 35 21 45 36 19 25 -23 -9 -18 16 20 95 19 40 33 74 31 76
-6 7 -94 -32 -97 -42 -2 -12 -30 -34 -43 -35 -5 0 -3 7 4 15 7 8 10 15 6 15
-7 0 -115 -58 -141 -76 -29 -21 -50 -17 -63 11 -13 29 -42 34 -42 7 0 -10 7
-27 14 -38 14 -19 12 -24 -25 -59 -27 -27 -39 -34 -39 -23 0 9 6 18 13 21 8 3
6 9 -7 19 -12 9 -16 20 -12 29 4 8 -31 -26 -78 -75 -86 -90 -101 -94 -73 -19
12 30 127 163 127 146 0 -5 -5 -14 -12 -21 -6 -6 -8 -15 -4 -19 8 -8 10 -6 54
69 15 26 68 89 118 140 71 73 101 97 135 107 24 7 52 17 61 22 30 15 36 11 73
-55 l36 -64 152 62 c84 35 216 93 292 129 77 36 143 66 147 66 3 1 27 -37 52
-84z m-721 -332 c-5 -12 -3 -14 7 -8 9 5 11 4 6 -4 -4 -6 -12 -9 -17 -5 -6 3
-7 -5 -4 -23 5 -21 4 -24 -4 -13 -14 20 -14 43 1 58 16 16 19 15 11 -5z m-393
-138 c-7 -9 -15 -13 -17 -11 -7 7 7 26 19 26 6 0 6 -6 -2 -15z m23 -19 c3 -8
0 -19 -7 -25 -10 -9 -13 -6 -11 11 4 34 9 38 18 14z m2787 -76 c0 -5 -6 -10
-13 -10 -19 0 -50 -36 -43 -49 3 -5 -1 -17 -10 -25 -17 -18 -44 -21 -44 -6 0
6 7 10 15 10 8 0 15 9 15 20 0 14 -7 20 -24 20 -20 0 -23 4 -19 21 6 21 7 21
20 4 13 -18 14 -18 56 2 51 26 47 25 47 13z m270 -48 c0 -17 -26 -62 -39 -67
-11 -4 -12 -3 -1 10 7 8 9 22 6 32 -4 9 -1 20 6 25 17 10 28 10 28 0z m-2359
-125 c-13 -13 -15 11 -4 40 7 16 8 15 11 -6 2 -13 -1 -28 -7 -34z m2294 44
c-6 -5 -21 -12 -35 -15 l-25 -7 25 15 c28 17 50 21 35 7z m-2255 -76 l23 -25
-32 -13 c-17 -7 -28 -17 -24 -22 5 -4 2 -5 -5 -1 -16 9 -54 -3 -47 -15 4 -5 1
-9 -4 -9 -6 0 -11 5 -11 10 0 6 -5 10 -11 10 -5 0 -7 -4 -4 -10 3 -5 1 -10 -4
-10 -6 0 -11 7 -11 17 0 13 -4 11 -20 -7 -11 -13 -20 -19 -20 -14 0 6 6 16 13
23 10 12 8 13 -8 7 -19 -6 -19 -5 -2 8 9 7 17 18 17 25 0 6 15 11 35 11 22 0
43 8 55 20 26 26 32 25 60 -5z m433 -170 c15 -4 30 -11 33 -17 6 -10 -21 -4
-82 17 -35 12 -36 13 -14 17 14 2 27 0 30 -4 3 -3 18 -10 33 -13z m-1315 -112
c-14 -18 -19 -12 -11 16 4 16 8 19 14 10 4 -7 3 -19 -3 -26z m2627 -183 c3 -5
2 -10 -4 -10 -5 0 -13 5 -16 10 -3 6 -2 10 4 10 5 0 13 -4 16 -10z m45 -40 c0
-5 -2 -10 -4 -10 -3 0 -8 5 -11 10 -3 6 -1 10 4 10 6 0 11 -4 11 -10z m27
-132 c-3 -7 -5 -2 -5 12 0 14 2 19 5 13 2 -7 2 -19 0 -25z m-2481 -153 c-23
-17 -36 -19 -36 -6 0 5 8 12 18 14 32 9 37 6 18 -8z m1164 -114 c0 -9 -8 -12
-25 -9 -14 3 -25 1 -25 -3 0 -10 -65 -39 -85 -39 -13 0 -35 49 -35 76 0 7 9
15 20 19 11 3 19 12 17 18 -1 7 10 12 26 12 21 -1 29 5 34 23 5 22 8 20 39
-29 19 -30 34 -60 34 -68z m-429 10 c-43 -54 -193 -193 -200 -185 -3 3 25 35
62 70 65 62 75 84 39 84 -11 0 -6 6 12 15 36 19 47 19 21 -1 -19 -14 -19 -14
5 -11 15 3 25 11 25 21 0 16 55 60 63 51 3 -2 -10 -22 -27 -44z"/>
<path d="M3850 4476 c0 -9 60 -102 60 -93 0 13 -39 85 -50 92 -5 3 -10 4 -10
1z"/>
<path d="M3070 4400 c0 -5 5 -10 10 -10 6 0 10 5 10 10 0 6 -4 10 -10 10 -5 0
-10 -4 -10 -10z"/>
<path d="M3055 4350 c3 -5 8 -10 11 -10 2 0 4 5 4 10 0 6 -5 10 -11 10 -5 0
-7 -4 -4 -10z"/>
<path d="M4385 4085 c-27 -14 -39 -22 -25 -19 30 7 90 33 90 39 0 9 -16 4 -65
-20z"/>
<path d="M4380 4057 c-29 -13 -39 -22 -28 -24 21 -5 88 23 88 36 0 14 -7 13
-60 -12z"/>
<path d="M3510 3901 c0 -5 8 -19 19 -32 l18 -23 12 23 c7 12 11 24 9 25 -10 9
-58 15 -58 7z"/>
<path d="M3634 3856 c-64 -20 -66 -22 -44 -64 21 -41 130 -335 130 -352 0 -12
30 -13 48 -2 10 7 5 29 -20 101 -33 94 -32 100 6 114 10 3 -57 210 -70 213 -5
2 -27 -3 -50 -10z"/>
<path d="M3500 3850 c0 -5 5 -10 11 -10 5 0 7 5 4 10 -3 6 -8 10 -11 10 -2 0
-4 -4 -4 -10z"/>
<path d="M3783 3849 c-18 -5 -33 -13 -33 -18 0 -5 13 -37 29 -72 15 -35 33
-76 39 -91 10 -25 16 -28 57 -25 l46 2 25 -74 c13 -40 24 -80 24 -87 0 -8 9
-23 20 -34 l21 -21 47 48 c26 26 65 59 85 73 60 41 50 54 -52 68 -49 6 -102
17 -118 24 -15 6 -32 12 -38 12 -5 1 -15 17 -22 36 -57 170 -64 179 -130 159z
m337 -269 c-8 -5 -17 -7 -19 -4 -3 3 1 9 9 14 8 5 17 7 19 4 3 -3 -1 -9 -9
-14z m-40 0 c0 -5 -13 -10 -30 -10 -16 0 -30 5 -30 10 0 6 14 10 30 10 17 0
30 -4 30 -10z m-65 -128 c-3 -3 -11 0 -18 7 -9 10 -8 11 6 5 10 -3 15 -9 12
-12z"/>
<path d="M3847 3482 c-24 -26 -21 -59 8 -87 28 -29 42 -31 73 -9 28 19 29 63
2 92 -25 27 -61 28 -83 4z"/>
<path d="M3656 3465 c-3 -8 -1 -17 3 -20 5 -3 11 2 15 10 3 8 1 17 -3 20 -5 3
-11 -2 -15 -10z"/>
<path d="M3680 3405 c0 -8 5 -15 10 -15 6 0 10 7 10 15 0 8 -4 15 -10 15 -5 0
-10 -7 -10 -15z"/>
<path d="M3706 3351 c-4 -7 -5 -15 -2 -18 9 -9 19 4 14 18 -4 11 -6 11 -12 0z"/>
<path d="M4180 3183 c0 -3 8 -18 17 -34 17 -29 57 -48 71 -35 3 4 -5 10 -18
13 -24 7 -24 7 -4 12 19 5 16 9 -22 27 -24 12 -44 20 -44 17z"/>
<path d="M4690 3145 c0 -8 7 -15 15 -15 8 0 15 7 15 15 0 8 -7 15 -15 15 -8 0
-15 -7 -15 -15z"/>
<path d="M4637 3138 c-6 -18 11 -48 28 -48 21 0 27 17 15 40 -12 22 -36 27
-43 8z"/>
<path d="M3867 2906 c-3 -8 -2 -18 4 -22 16 -9 22 2 11 21 -8 15 -10 16 -15 1z"/>
<path d="M4445 2820 c3 -5 11 -10 16 -10 6 0 7 5 4 10 -3 6 -11 10 -16 10 -6
0 -7 -4 -4 -10z"/>
<path d="M3080 3932 c0 -6 6 -13 13 -16 6 -3 0 -4 -14 -1 -18 3 -31 -1 -40
-12 -10 -11 -10 -14 -2 -9 7 4 20 3 29 -2 14 -8 14 -12 -7 -31 -12 -11 -19
-21 -15 -21 5 0 2 -7 -5 -16 -12 -15 -11 -16 6 -11 11 3 37 9 57 13 20 3 53
12 73 18 l36 13 -41 36 c-22 21 -44 37 -49 37 -5 0 -16 3 -25 6 -9 3 -16 2
-16 -4z"/>
<path d="M2440 3910 c0 -5 7 -10 15 -10 8 0 15 5 15 10 0 6 -7 10 -15 10 -8 0
-15 -4 -15 -10z"/>
<path d="M2060 3787 c0 -28 19 -40 41 -26 11 6 11 13 3 26 -18 29 -44 29 -44
0z"/>
<path d="M2254 3786 c-10 -8 -16 -17 -12 -21 7 -7 48 16 48 27 0 12 -14 9 -36
-6z"/>
<path d="M3233 3773 c-20 -7 -15 -23 7 -23 11 0 20 4 20 9 0 13 -12 19 -27 14z"/>
<path d="M3287 3747 c-3 -8 3 -14 16 -15 12 0 17 2 12 6 -6 4 -13 11 -16 15
-4 4 -9 2 -12 -6z"/>
<path d="M3070 3712 c0 -5 9 -17 21 -28 21 -19 21 -19 8 9 -12 26 -29 37 -29
19z"/>
<path d="M2595 3688 c11 -6 44 -31 73 -55 57 -49 66 -48 26 4 -27 35 -72 63
-101 63 -16 -1 -16 -2 2 -12z"/>
<path d="M3117 3670 c-3 -11 -1 -23 4 -26 5 -3 9 6 9 20 0 31 -6 34 -13 6z"/>
<path d="M2170 3595 c-14 -8 -20 -14 -14 -15 5 0 19 7 30 15 24 18 16 19 -16
0z"/>
<path d="M2691 3498 c1 -72 5 -68 12 10 2 28 0 52 -4 52 -5 0 -9 -28 -8 -62z"/>
<path d="M2801 3354 c0 -11 3 -14 6 -6 3 7 2 16 -1 19 -3 4 -6 -2 -5 -13z"/>
<path d="M2256 3225 c-3 -8 -1 -15 4 -15 6 0 10 7 10 15 0 8 -2 15 -4 15 -2 0
-6 -7 -10 -15z"/>
<path d="M1900 3182 c0 -12 19 -26 26 -19 2 2 -2 10 -11 17 -9 8 -15 8 -15 2z"/>
<path d="M3420 3127 c0 -8 10 -22 21 -33 l22 -19 -17 33 c-18 34 -26 40 -26
19z"/>
<path d="M3560 3110 c0 -5 5 -10 11 -10 5 0 7 5 4 10 -3 6 -8 10 -11 10 -2 0
-4 -4 -4 -10z"/>
<path d="M3595 3110 c-3 -5 3 -10 14 -10 12 0 21 5 21 10 0 6 -6 10 -14 10 -8
0 -18 -4 -21 -10z"/>
<path d="M3456 3056 c3 -8 0 -25 -6 -38 l-12 -23 21 21 c21 19 21 54 0 54 -4
0 -6 -6 -3 -14z"/>
<path d="M2326 3011 c-4 -5 -2 -12 3 -15 5 -4 12 -2 15 3 4 5 2 12 -3 15 -5 4
-12 2 -15 -3z"/>
<path d="M2353 2907 c31 -57 39 -79 27 -72 -5 3 -18 -3 -30 -15 -25 -25 -15
-25 44 0 46 21 63 37 27 25 -16 -5 -25 4 -46 49 -15 31 -30 56 -35 56 -5 0 1
-19 13 -43z"/>
<path d="M2180 2457 c0 -10 8 -17 18 -17 9 0 13 4 7 8 -5 4 -13 11 -17 16 -5
5 -8 2 -8 -7z"/>
</g>
</svg>
