<?xml version="1.0" standalone="no"?>
<!DOCTYPE svg PUBLIC "-//W3C//DTD SVG 20010904//EN"
 "http://www.w3.org/TR/2001/REC-SVG-20010904/DTD/svg10.dtd">
<svg version="1.0" xmlns="http://www.w3.org/2000/svg"
 width="270.000000pt" height="270.000000pt" viewBox="0 0 270.000000 270.000000"
 preserveAspectRatio="xMidYMid meet">
<metadata>
Created by potrace 1.14, written by Peter Selinger 2001-2017
</metadata>
<g transform="translate(0.000000,270.000000) scale(0.100000,-0.100000)"
fill="#000000" stroke="none">
<path d="M322 2659 c-158 -31 -281 -157 -312 -319 -14 -72 -14 -1878 0 -1950
31 -163 150 -286 308 -319 74 -15 1900 -15 1974 0 157 33 277 155 308 314 16
87 10 1956 -8 2005 -37 110 -130 208 -239 251 l-58 24 -965 2 c-531 0 -984 -3
-1008 -8z m338 -534 l0 -75 60 0 60 0 0 75 0 75 60 0 60 0 0 -205 0 -205 -60
0 -60 0 0 90 0 90 -60 0 -60 0 0 -90 0 -90 -60 0 -60 0 0 205 0 205 60 0 60 0
0 -75z m557 -48 c27 -27 28 -31 31 -157 l4 -130 -56 0 c-33 0 -56 4 -56 11 0
5 -10 3 -22 -5 -28 -20 -107 -21 -134 -1 -60 41 -53 139 12 170 19 9 60 19 90
22 56 6 64 12 40 32 -17 15 -59 17 -113 7 l-43 -8 0 40 c0 50 4 51 127 49 87
-2 94 -4 120 -30z m203 7 c0 -14 2 -14 22 0 12 9 37 16 55 16 32 0 33 -2 33
-38 l0 -38 -52 -10 -53 -9 -3 -107 -3 -108 -54 0 -55 0 0 155 0 155 55 0 c43
0 55 -3 55 -16z m252 5 c3 -9 10 -9 26 0 13 7 55 11 105 9 l82 -3 25 -72 c14
-40 27 -73 31 -73 3 0 16 34 29 75 l24 75 58 0 58 0 -27 -72 c-15 -40 -50
-134 -78 -208 l-51 -135 -61 -3 -62 -3 24 60 25 60 -50 128 c-27 70 -49 121
-50 112 0 -11 -16 -18 -52 -25 l-53 -9 -3 -107 -3 -108 -59 0 -60 0 0 155 0
155 59 0 c36 0 61 -5 63 -11z m-592 -624 l0 -205 -55 0 -55 0 0 205 0 205 55
0 55 0 0 -205z m-593 166 c53 -25 92 -82 100 -148 7 -62 -9 -113 -50 -160 -46
-53 -80 -63 -207 -63 l-110 0 0 195 0 195 113 0 c88 0 121 -4 154 -19z m890
-94 c27 -27 28 -31 32 -153 l3 -125 -68 0 c-38 1 -90 -2 -117 -5 -59 -7 -92
11 -106 61 -23 84 38 145 147 145 17 0 32 3 32 8 -1 33 -57 48 -106 27 -51
-21 -54 -20 -54 24 0 48 5 50 122 48 81 -2 90 -4 115 -30z m328 27 c34 -13 45
-59 45 -184 l0 -120 -50 0 -50 0 0 79 c0 131 -15 165 -61 141 -17 -10 -19 -22
-19 -115 l0 -105 -55 0 -55 0 0 151 0 150 69 -3 c39 -1 73 1 77 5 9 9 76 9 99
1z m319 -4 c38 -14 66 -66 66 -122 l0 -48 -100 0 c-55 0 -100 -3 -100 -6 0
-19 25 -44 54 -54 26 -8 43 -8 77 4 64 23 69 21 69 -23 0 -35 -3 -40 -31 -50
-18 -6 -62 -11 -98 -11 -116 0 -172 50 -173 153 -1 66 25 123 66 148 34 21
127 26 170 9z m-1294 -87 c0 -128 14 -158 61 -133 17 10 19 22 19 115 l0 105
55 0 55 0 0 -151 0 -150 -67 0 c-38 0 -91 -2 -120 -5 -48 -5 -54 -4 -78 22
-24 26 -25 32 -25 155 l0 129 50 0 50 0 0 -87z m1500 2 l27 -80 23 78 c13 44
29 81 36 84 6 2 32 3 56 1 l45 -3 -58 -160 c-33 -88 -66 -179 -75 -202 l-16
-43 -58 0 -59 0 24 59 24 58 -21 54 c-11 30 -35 96 -54 147 l-34 93 57 -3 56
-3 27 -80z m-332 -459 c4 -30 -2 -31 -49 -12 -20 9 -49 -18 -49 -44 0 -26 29
-53 49 -44 47 19 53 18 49 -12 -3 -27 -6 -29 -56 -32 -67 -4 -99 15 -108 63
-7 40 9 90 35 105 9 6 41 9 71 7 53 -2 55 -3 58 -31z m162 24 c29 -15 44 -73
30 -115 -14 -43 -35 -55 -93 -55 -67 0 -92 25 -92 90 0 42 4 55 24 71 26 21
99 26 131 9z m206 -1 c8 -7 14 -6 19 1 3 5 24 10 45 10 50 0 60 -18 60 -109
l0 -71 -35 0 -34 0 -3 63 c-2 34 -7 62 -13 62 -5 0 -11 -28 -13 -62 l-3 -63
-34 0 -34 0 -3 57 c-2 46 -7 59 -20 61 -16 3 -18 -5 -18 -57 l0 -61 -35 0 -35
0 0 90 0 89 72 0 c40 0 78 -5 84 -10z m-546 -139 c0 -28 -2 -30 -40 -30 -38 0
-40 2 -40 30 0 28 2 30 40 30 38 0 40 -2 40 -30z"/>
<path d="M1103 1922 c-43 -4 -65 -39 -37 -59 32 -24 78 0 72 38 -3 20 -8 24
-35 21z"/>
<path d="M340 1455 l0 -127 38 7 c54 9 84 43 89 102 8 81 -22 124 -95 139
l-32 7 0 -128z"/>
<path d="M1232 1378 c-32 -32 8 -80 48 -58 13 7 20 21 20 40 0 26 -4 30 -28
30 -15 0 -33 -5 -40 -12z"/>
<path d="M1930 1502 c-16 -5 -40 -31 -40 -44 0 -4 23 -8 51 -8 43 0 50 3 45
16 -3 9 -6 17 -6 19 0 10 -36 22 -50 17z"/>
<path d="M1975 980 c-9 -29 3 -60 25 -60 9 0 20 9 23 20 8 31 -3 60 -23 60
-10 0 -22 -9 -25 -20z"/>
</g>
</svg>
