<?xml version="1.0" encoding="UTF-8" standalone="no" ?>
<!DOCTYPE svg PUBLIC "-//W3C//DTD SVG 1.1//EN" "http://www.w3.org/Graphics/SVG/1.1/DTD/svg11.dtd">
<svg xmlns="http://www.w3.org/2000/svg" xmlns:xlink="http://www.w3.org/1999/xlink" version="1.1" width="1080" height="1080" viewBox="0 0 1080 1080" xml:space="preserve">
<desc>Created with Fabric.js 5.2.4</desc>
<defs>
</defs>
<g transform="matrix(1 0 0 1 540 540)" id="a741299a-86eb-4a68-bfc3-cba13997f8db"  >
</g>
<g transform="matrix(1 0 0 1 540 540)" id="ac64ff04-0751-4ba1-a8f7-f3f641c532d1"  >
<rect style="stroke: none; stroke-width: 1; stroke-dasharray: none; stroke-linecap: butt; stroke-dashoffset: 0; stroke-linejoin: miter; stroke-miterlimit: 4; fill: rgb(255,255,255); fill-rule: nonzero; opacity: 1; visibility: hidden;" vector-effect="non-scaling-stroke"  x="-540" y="-540" rx="0" ry="0" width="1080" height="1080" />
</g>
<g transform="matrix(1 0 0 1 540 540)"  >
<path style="stroke: none; stroke-width: 1; stroke-dasharray: none; stroke-linecap: butt; stroke-dashoffset: 0; stroke-linejoin: miter; stroke-miterlimit: 4; fill: rgb(232,232,232); fill-rule: nonzero; opacity: 1;" vector-effect="non-scaling-stroke"  transform=" translate(-600, -450)" d="M 600 198.5 C 321.327 198.5 95.17599999999999 423.33411 93.02533 701.5 L 1106.97464 701.5 C 1104.824 423.33411 878.67307 198.5 600 198.5 Z" stroke-linecap="round" />
</g>
<g transform="matrix(1 0 0 1 513.81 341.04)"  >
<circle style="stroke: none; stroke-width: 1; stroke-dasharray: none; stroke-linecap: butt; stroke-dashoffset: 0; stroke-linejoin: miter; stroke-miterlimit: 4; fill: rgb(242,242,242); fill-rule: nonzero; opacity: 1;" vector-effect="non-scaling-stroke"  cx="0" cy="0" r="5" />
</g>
<g transform="matrix(1 0 0 1 356.81 506.04)"  >
<circle style="stroke: none; stroke-width: 1; stroke-dasharray: none; stroke-linecap: butt; stroke-dashoffset: 0; stroke-linejoin: miter; stroke-miterlimit: 4; fill: rgb(242,242,242); fill-rule: nonzero; opacity: 1;" vector-effect="non-scaling-stroke"  cx="0" cy="0" r="2" />
</g>
<g transform="matrix(1 0 0 1 651.81 600.04)"  >
<circle style="stroke: none; stroke-width: 1; stroke-dasharray: none; stroke-linecap: butt; stroke-dashoffset: 0; stroke-linejoin: miter; stroke-miterlimit: 4; fill: rgb(242,242,242); fill-rule: nonzero; opacity: 1;" vector-effect="non-scaling-stroke"  cx="0" cy="0" r="2" />
</g>
<g transform="matrix(1 0 0 1 130.81 575.04)"  >
<circle style="stroke: none; stroke-width: 1; stroke-dasharray: none; stroke-linecap: butt; stroke-dashoffset: 0; stroke-linejoin: miter; stroke-miterlimit: 4; fill: rgb(242,242,242); fill-rule: nonzero; opacity: 1;" vector-effect="non-scaling-stroke"  cx="0" cy="0" r="2" />
</g>
<g transform="matrix(1 0 0 1 910.81 504.04)"  >
<circle style="stroke: none; stroke-width: 1; stroke-dasharray: none; stroke-linecap: butt; stroke-dashoffset: 0; stroke-linejoin: miter; stroke-miterlimit: 4; fill: rgb(242,242,242); fill-rule: nonzero; opacity: 1;" vector-effect="non-scaling-stroke"  cx="0" cy="0" r="2" />
</g>
<g transform="matrix(1 0 0 1 268.81 525.04)"  >
<circle style="stroke: none; stroke-width: 1; stroke-dasharray: none; stroke-linecap: butt; stroke-dashoffset: 0; stroke-linejoin: miter; stroke-miterlimit: 4; fill: rgb(242,242,242); fill-rule: nonzero; opacity: 1;" vector-effect="non-scaling-stroke"  cx="0" cy="0" r="2" />
</g>
<g transform="matrix(1 0 0 1 596.81 485.04)"  >
<circle style="stroke: none; stroke-width: 1; stroke-dasharray: none; stroke-linecap: butt; stroke-dashoffset: 0; stroke-linejoin: miter; stroke-miterlimit: 4; fill: rgb(242,242,242); fill-rule: nonzero; opacity: 1;" vector-effect="non-scaling-stroke"  cx="0" cy="0" r="2" />
</g>
<g transform="matrix(1 0 0 1 662.81 341.04)"  >
<circle style="stroke: none; stroke-width: 1; stroke-dasharray: none; stroke-linecap: butt; stroke-dashoffset: 0; stroke-linejoin: miter; stroke-miterlimit: 4; fill: rgb(242,242,242); fill-rule: nonzero; opacity: 1;" vector-effect="non-scaling-stroke"  cx="0" cy="0" r="2" />
</g>
<g transform="matrix(1 0 0 1 245.81 577.54)"  >
<rect style="stroke: none; stroke-width: 1; stroke-dasharray: none; stroke-linecap: butt; stroke-dashoffset: 0; stroke-linejoin: miter; stroke-miterlimit: 4; fill: rgb(242,242,242); fill-rule: nonzero; opacity: 1;" vector-effect="non-scaling-stroke"  x="-1" y="-0.5" rx="0" ry="0" width="2" height="1" />
</g>
<g transform="matrix(1 0 0 1 304.81 424.54)"  >
<rect style="stroke: none; stroke-width: 1; stroke-dasharray: none; stroke-linecap: butt; stroke-dashoffset: 0; stroke-linejoin: miter; stroke-miterlimit: 4; fill: rgb(242,242,242); fill-rule: nonzero; opacity: 1;" vector-effect="non-scaling-stroke"  x="-1" y="-0.5" rx="0" ry="0" width="2" height="1" />
</g>
<g transform="matrix(1 0 0 1 448.81 538.54)"  >
<rect style="stroke: none; stroke-width: 1; stroke-dasharray: none; stroke-linecap: butt; stroke-dashoffset: 0; stroke-linejoin: miter; stroke-miterlimit: 4; fill: rgb(242,242,242); fill-rule: nonzero; opacity: 1;" vector-effect="non-scaling-stroke"  x="-1" y="-0.5" rx="0" ry="0" width="2" height="1" />
</g>
<g transform="matrix(1 0 0 1 830.81 582.54)"  >
<rect style="stroke: none; stroke-width: 1; stroke-dasharray: none; stroke-linecap: butt; stroke-dashoffset: 0; stroke-linejoin: miter; stroke-miterlimit: 4; fill: rgb(242,242,242); fill-rule: nonzero; opacity: 1;" vector-effect="non-scaling-stroke"  x="-1" y="-0.5" rx="0" ry="0" width="2" height="1" />
</g>
<g transform="matrix(1 0 0 1 711.81 429.54)"  >
<rect style="stroke: none; stroke-width: 1; stroke-dasharray: none; stroke-linecap: butt; stroke-dashoffset: 0; stroke-linejoin: miter; stroke-miterlimit: 4; fill: rgb(242,242,242); fill-rule: nonzero; opacity: 1;" vector-effect="non-scaling-stroke"  x="-1" y="-0.5" rx="0" ry="0" width="2" height="1" />
</g>
<g transform="matrix(1 0 0 1 259.87 721.68)"  >
<rect style="stroke: none; stroke-width: 1; stroke-dasharray: none; stroke-linecap: butt; stroke-dashoffset: 0; stroke-linejoin: miter; stroke-miterlimit: 4; fill: rgb(63,61,86); fill-rule: nonzero; opacity: 1;" vector-effect="non-scaling-stroke"  x="-1.76" y="-69.5" rx="0" ry="0" width="3.52" height="139" />
</g>
<g transform="matrix(1 0 0 1 259.73 628.05)"  >
<path style="stroke: none; stroke-width: 1; stroke-dasharray: none; stroke-linecap: butt; stroke-dashoffset: 0; stroke-linejoin: miter; stroke-miterlimit: 4; fill: rgb(204,200,247); fill-rule: nonzero; opacity: 1;" vector-effect="non-scaling-stroke"  transform=" translate(-319.73, -538.05)" d="M 354.11075 537.89444 C 354.33475 586.50044 320.13788 626.06181 320.13788 626.06181 C 320.13788 626.06181 285.57779 586.81732 285.35377 538.2113300000001 C 285.12975 489.6053400000002 319.32664 450.044 319.32664 450.044 C 319.32664 450.044 353.88673 489.28845 354.11075 537.89444 Z" stroke-linecap="round" />
</g>
<g transform="matrix(1 0 0 1 215.92 701.08)"  >
<rect style="stroke: none; stroke-width: 1; stroke-dasharray: none; stroke-linecap: butt; stroke-dashoffset: 0; stroke-linejoin: miter; stroke-miterlimit: 4; fill: rgb(63,61,86); fill-rule: nonzero; opacity: 1;" vector-effect="non-scaling-stroke"  x="-2.28" y="-90.105" rx="0" ry="0" width="4.56" height="180.21" />
</g>
<g transform="matrix(1 0 0 1 215.73 592.14)"  >
<path style="stroke: none; stroke-width: 1; stroke-dasharray: none; stroke-linecap: butt; stroke-dashoffset: 0; stroke-linejoin: miter; stroke-miterlimit: 4; fill: rgb(204,200,247); fill-rule: nonzero; opacity: 1;" vector-effect="non-scaling-stroke"  transform=" translate(-275.73, -502.14)" d="M 320.30235 501.938 C 320.59278 564.95338 276.25813 616.24286 276.25813 616.24286 C 276.25813 616.24286 231.45259 565.3642199999999 231.16213 502.34885999999995 C 230.87167 439.33349999999996 275.20639 388.044 275.20639 388.044 C 275.20639 388.044 320.01192 438.92259 320.30235 501.938 Z" stroke-linecap="round" />
</g>
<g transform="matrix(1 0 0 1 746.87 721.68)"  >
<rect style="stroke: none; stroke-width: 1; stroke-dasharray: none; stroke-linecap: butt; stroke-dashoffset: 0; stroke-linejoin: miter; stroke-miterlimit: 4; fill: rgb(255,255,255); fill-rule: nonzero; opacity: 1;" vector-effect="non-scaling-stroke"  x="-1.76" y="-69.5" rx="0" ry="0" width="3.52" height="139" />
</g>
<g transform="matrix(1 0 0 1 746.73 670.05)"  >
<path style="stroke: none; stroke-width: 1; stroke-dasharray: none; stroke-linecap: butt; stroke-dashoffset: 0; stroke-linejoin: miter; stroke-miterlimit: 4; fill: rgb(203,200,247); fill-rule: nonzero; opacity: 1;" vector-effect="non-scaling-stroke"  transform=" translate(-806.73, -580.05)" d="M 841.11075 579.89444 C 841.3347500000001 628.50044 807.13788 668.06181 807.13788 668.06181 C 807.13788 668.06181 772.57779 628.81732 772.3537699999999 580.2113300000001 C 772.1297499999998 531.6053400000002 806.32664 492.044 806.32664 492.044 C 806.32664 492.044 840.88673 531.28845 841.11075 579.89444 Z" stroke-linecap="round" />
</g>
<g transform="matrix(1 0 0 1 175.87 721.68)"  >
<rect style="stroke: none; stroke-width: 1; stroke-dasharray: none; stroke-linecap: butt; stroke-dashoffset: 0; stroke-linejoin: miter; stroke-miterlimit: 4; fill: rgb(63,61,86); fill-rule: nonzero; opacity: 1;" vector-effect="non-scaling-stroke"  x="-1.76" y="-69.5" rx="0" ry="0" width="3.52" height="139" />
</g>
<g transform="matrix(1 0 0 1 175.73 628.05)"  >
<path style="stroke: none; stroke-width: 1; stroke-dasharray: none; stroke-linecap: butt; stroke-dashoffset: 0; stroke-linejoin: miter; stroke-miterlimit: 4; fill: rgb(204,200,247); fill-rule: nonzero; opacity: 1;" vector-effect="non-scaling-stroke"  transform=" translate(-235.73, -538.05)" d="M 270.11075 537.89444 C 270.33475 586.50044 236.13788 626.06181 236.13788 626.06181 C 236.13788 626.06181 201.57779 586.81732 201.35377 538.2113300000001 C 201.12975 489.6053400000002 235.32664 450.044 235.32664 450.044 C 235.32664 450.044 269.88673 489.28845 270.11075 537.89444 Z" stroke-linecap="round" />
</g>
<g transform="matrix(1 0 0 1 485.87 721.68)"  >
<rect style="stroke: none; stroke-width: 1; stroke-dasharray: none; stroke-linecap: butt; stroke-dashoffset: 0; stroke-linejoin: miter; stroke-miterlimit: 4; fill: rgb(63,61,86); fill-rule: nonzero; opacity: 1;" vector-effect="non-scaling-stroke"  x="-1.76" y="-69.5" rx="0" ry="0" width="3.52" height="139" />
</g>
<g transform="matrix(1 0 0 1 485.73 628.05)"  >
<path style="stroke: none; stroke-width: 1; stroke-dasharray: none; stroke-linecap: butt; stroke-dashoffset: 0; stroke-linejoin: miter; stroke-miterlimit: 4; fill: rgb(204,200,247); fill-rule: nonzero; opacity: 1;" vector-effect="non-scaling-stroke"  transform=" translate(-545.73, -538.05)" d="M 580.11075 537.89444 C 580.3347500000001 586.50044 546.13788 626.06181 546.13788 626.06181 C 546.13788 626.06181 511.57779 586.81732 511.35377 538.2113300000001 C 511.12975 489.6053400000002 545.32664 450.044 545.32664 450.044 C 545.32664 450.044 579.88673 489.28845 580.11075 537.89444 Z" stroke-linecap="round" />
</g>
<g transform="matrix(1 0 0 1 441.92 701.08)"  >
<rect style="stroke: none; stroke-width: 1; stroke-dasharray: none; stroke-linecap: butt; stroke-dashoffset: 0; stroke-linejoin: miter; stroke-miterlimit: 4; fill: rgb(63,61,86); fill-rule: nonzero; opacity: 1;" vector-effect="non-scaling-stroke"  x="-2.28" y="-90.105" rx="0" ry="0" width="4.56" height="180.21" />
</g>
<g transform="matrix(1 0 0 1 441.73 592.14)"  >
<path style="stroke: none; stroke-width: 1; stroke-dasharray: none; stroke-linecap: butt; stroke-dashoffset: 0; stroke-linejoin: miter; stroke-miterlimit: 4; fill: rgb(204,200,247); fill-rule: nonzero; opacity: 1;" vector-effect="non-scaling-stroke"  transform=" translate(-501.73, -502.14)" d="M 546.30235 501.938 C 546.5927800000001 564.95338 502.25813000000005 616.24286 502.25813000000005 616.24286 C 502.25813000000005 616.24286 457.45259000000004 565.3642199999999 457.16213000000005 502.34885999999995 C 456.87167000000005 439.33349999999996 501.20639 388.044 501.20639 388.044 C 501.20639 388.044 546.01192 438.92259 546.30235 501.938 Z" stroke-linecap="round" />
</g>
<g transform="matrix(1 0 0 1 401.87 721.68)"  >
<rect style="stroke: none; stroke-width: 1; stroke-dasharray: none; stroke-linecap: butt; stroke-dashoffset: 0; stroke-linejoin: miter; stroke-miterlimit: 4; fill: rgb(63,61,86); fill-rule: nonzero; opacity: 1;" vector-effect="non-scaling-stroke"  x="-1.76" y="-69.5" rx="0" ry="0" width="3.52" height="139" />
</g>
<g transform="matrix(1 0 0 1 401.73 628.05)"  >
<path style="stroke: none; stroke-width: 1; stroke-dasharray: none; stroke-linecap: butt; stroke-dashoffset: 0; stroke-linejoin: miter; stroke-miterlimit: 4; fill: rgb(204,200,247); fill-rule: nonzero; opacity: 1;" vector-effect="non-scaling-stroke"  transform=" translate(-461.73, -538.05)" d="M 496.11075 537.89444 C 496.33475 586.50044 462.13788 626.06181 462.13788 626.06181 C 462.13788 626.06181 427.57779 586.81732 427.35377 538.2113300000001 C 427.12975 489.6053400000002 461.32664 450.044 461.32664 450.044 C 461.32664 450.044 495.88673 489.28845 496.11075 537.89444 Z" stroke-linecap="round" />
</g>
<g transform="matrix(1 0 0 1 741.87 710.45)"  >
<path style="stroke: none; stroke-width: 1; stroke-dasharray: none; stroke-linecap: butt; stroke-dashoffset: 0; stroke-linejoin: miter; stroke-miterlimit: 4; fill: rgb(255,255,255); fill-rule: nonzero; opacity: 1;" vector-effect="non-scaling-stroke"  transform=" translate(-801.87, -620.45)" d="M 831.38738 626.91334 L 772.58379 572.84479 C 772.42498 575.27454 772.3423300000001 577.73035 772.35369 580.21131 C 772.57781 628.81739 807.13787 668.06177 807.13787 668.06177 C 817.1998587866165 655.612256328526 825.3709269455965 641.7469606518291 831.38738 626.91334 Z" stroke-linecap="round" />
</g>
<g transform="matrix(1 0 0 1 338.94 777.36)"  >
<path style="stroke: none; stroke-width: 1; stroke-dasharray: none; stroke-linecap: butt; stroke-dashoffset: 0; stroke-linejoin: miter; stroke-miterlimit: 4; fill: rgb(63,61,86); fill-rule: nonzero; opacity: 1;" vector-effect="non-scaling-stroke"  transform=" translate(-398.94, -687.36)" d="M 393.6691 688.7839 C 395.68385 696.23163 402.58482000000004 700.8442 402.58482000000004 700.8442 C 402.58482000000004 700.8442 406.21924 693.38161 404.20449 685.93388 C 402.18974000000003 678.4861500000001 395.28877 673.87359 395.28877 673.87359 C 395.28877 673.87359 391.65435 681.33617 393.6691 688.7839 Z" stroke-linecap="round" />
</g>
<g transform="matrix(1 0 0 1 332.82 781.09)"  >
<path style="stroke: none; stroke-width: 1; stroke-dasharray: none; stroke-linecap: butt; stroke-dashoffset: 0; stroke-linejoin: miter; stroke-miterlimit: 4; fill: rgb(204,200,247); fill-rule: nonzero; opacity: 1;" vector-effect="non-scaling-stroke"  transform=" translate(-392.82, -691.09)" d="M 396.62963 687.18331 C 402.15813 692.56508 402.83340000000004 700.83812 402.83340000000004 700.83812 C 402.83340000000004 700.83812 394.54519000000005 700.38558 389.01669000000004 695.00381 C 383.48819000000003 689.6220400000001 382.81292 681.3489900000001 382.81292 681.3489900000001 C 382.81292 681.3489900000001 391.10113 681.80153 396.62963 687.18331 Z" stroke-linecap="round" />
</g>
<g transform="matrix(1 0 0 1 622.94 777.36)"  >
<path style="stroke: none; stroke-width: 1; stroke-dasharray: none; stroke-linecap: butt; stroke-dashoffset: 0; stroke-linejoin: miter; stroke-miterlimit: 4; fill: rgb(255,255,255); fill-rule: nonzero; opacity: 1;" vector-effect="non-scaling-stroke"  transform=" translate(-682.94, -687.36)" d="M 677.6691 688.7839 C 679.68385 696.23163 686.5848199999999 700.8442 686.5848199999999 700.8442 C 686.5848199999999 700.8442 690.2192399999999 693.38161 688.20449 685.93388 C 686.18974 678.4861500000001 679.28877 673.87359 679.28877 673.87359 C 679.28877 673.87359 675.65435 681.33617 677.6691 688.7839 Z" stroke-linecap="round" />
</g>
<g transform="matrix(1 0 0 1 616.82 781.09)"  >
<path style="stroke: none; stroke-width: 1; stroke-dasharray: none; stroke-linecap: butt; stroke-dashoffset: 0; stroke-linejoin: miter; stroke-miterlimit: 4; fill: rgb(255,255,255); fill-rule: nonzero; opacity: 1;" vector-effect="non-scaling-stroke"  transform=" translate(-676.82, -691.09)" d="M 680.62963 687.18331 C 686.15813 692.56508 686.8334 700.83812 686.8334 700.83812 C 686.8334 700.83812 678.5451899999999 700.38558 673.0166899999999 695.00381 C 667.4881899999999 689.6220400000001 666.81292 681.3489900000001 666.81292 681.3489900000001 C 666.81292 681.3489900000001 675.10113 681.80153 680.62963 687.18331 Z" stroke-linecap="round" />
</g>
<g transform="matrix(1 0 0 1 114.94 777.36)"  >
<path style="stroke: none; stroke-width: 1; stroke-dasharray: none; stroke-linecap: butt; stroke-dashoffset: 0; stroke-linejoin: miter; stroke-miterlimit: 4; fill: rgb(63,61,86); fill-rule: nonzero; opacity: 1;" vector-effect="non-scaling-stroke"  transform=" translate(-174.94, -687.36)" d="M 169.6691 688.7839 C 171.68384999999998 696.23163 178.58481999999998 700.8442 178.58481999999998 700.8442 C 178.58481999999998 700.8442 182.21923999999999 693.38161 180.20449 685.93388 C 178.18974 678.4861500000001 171.28877 673.87359 171.28877 673.87359 C 171.28877 673.87359 167.65435 681.33617 169.6691 688.7839 Z" stroke-linecap="round" />
</g>
<g transform="matrix(1 0 0 1 108.82 781.09)"  >
<path style="stroke: none; stroke-width: 1; stroke-dasharray: none; stroke-linecap: butt; stroke-dashoffset: 0; stroke-linejoin: miter; stroke-miterlimit: 4; fill: rgb(204,200,247); fill-rule: nonzero; opacity: 1;" vector-effect="non-scaling-stroke"  transform=" translate(-168.82, -691.09)" d="M 172.62963 687.18331 C 178.15813 692.56508 178.83339999999998 700.83812 178.83339999999998 700.83812 C 178.83339999999998 700.83812 170.54519 700.38558 165.01668999999998 695.00381 C 159.48818999999997 689.6220400000001 158.81292 681.3489900000001 158.81292 681.3489900000001 C 158.81292 681.3489900000001 167.10113 681.80153 172.62963 687.18331 Z" stroke-linecap="round" />
</g>
<g transform="matrix(1 0 0 1 470.24 566.45)"  >
<path style="stroke: none; stroke-width: 1; stroke-dasharray: none; stroke-linecap: butt; stroke-dashoffset: 0; stroke-linejoin: miter; stroke-miterlimit: 4; fill: rgb(255,255,255); fill-rule: nonzero; opacity: 1;" vector-effect="non-scaling-stroke"  transform=" translate(-530.23, -476.46)" d="M 480.35814 419.20747 L 576.8684 564.86915 C 579.0241480622464 556.0396123452762 580.1127177120787 546.9833132830395 580.11077 537.89442 C 580.00151 514.19242 571.72747 492.71930999999995 563.2775800000001 476.93442 L 558.8129200000001 478.04392 L 563.0120700000001 476.44199000000003 C 558.0363609425235 467.0603145913165 552.1101190741546 458.21456065509204 545.32665 450.0439999999999 C 545.32665 450.044 542.86425 452.894 539.2672 457.99865 C 526.58763 416.87041999999997 501.20641 388.044 501.20641 388.044 C 493.2844918748846 397.7472054088029 486.30362182435647 408.18203450462386 480.35813999999993 419.20747000000006 Z" stroke-linecap="round" />
</g>
<g transform="matrix(1 0 0 1 963.82 785.29)"  >
<path style="stroke: none; stroke-width: 1; stroke-dasharray: none; stroke-linecap: butt; stroke-dashoffset: 0; stroke-linejoin: miter; stroke-miterlimit: 4; fill: rgb(242,242,242); fill-rule: nonzero; opacity: 0.1;" vector-effect="non-scaling-stroke"  transform=" translate(-1023.81, -695.29)" d="M 1035.64285 695.28885 C 1036.6708996680106 695.2888501046558 1037.6208567805559 694.7403921959701 1038.1348816447728 693.8500750845633 C 1038.6489065089897 692.9597579731565 1038.6489065089897 691.8628420268436 1038.1348816447728 690.9725249154368 C 1037.6208567805559 690.08220780403 1036.6708996680106 689.5337498953443 1035.64285 689.53375 L 1011.983 689.53375 C 1013.5722254366967 692.7122040735636 1012.2839027934955 696.5771720031673 1009.1054499999999 698.1664000000001 C 1009.1054499999999 698.9295737103379 1009.4086195759934 699.6614898124003 1009.9482648817966 700.2011351182034 C 1010.4879101875997 700.7407804240066 1011.2198262896621 701.0439500000001 1011.983 701.0439500000001 L 1035.64287 701.0439500000001 C 1036.6709196680106 701.0439501046559 1037.6208767805558 700.4954921959702 1038.1349016447728 699.6051750845634 C 1038.6489265089897 698.7148579731565 1038.6489265089897 697.6179420268437 1038.1349016447728 696.7276249154369 C 1037.6208767805558 695.83730780403 1036.6709196680106 695.2888498953444 1035.64287 695.2888500000001 Z" stroke-linecap="round" />
</g>
<g transform="matrix(1 0 0 1 898.58 781.32)"  >
<path style="stroke: none; stroke-width: 1; stroke-dasharray: none; stroke-linecap: butt; stroke-dashoffset: 0; stroke-linejoin: miter; stroke-miterlimit: 4; fill: rgb(204,200,247); fill-rule: nonzero; opacity: 1;" vector-effect="non-scaling-stroke"  transform=" translate(-958.58, -691.32)" d="M 979.40863 689.35125 C 979.81292 705.04395 970.32063 701.04395 958.81292 701.04395 C 947.3052099999999 701.04395 937.81292 703.04395 937.73537 689.35125 C 937.69718 682.6085300000001 947.13278 681.14192 958.64053 681.14192 C 970.14828 681.14192 979.235 682.61066 979.40863 689.35125 Z" stroke-linecap="round" />
</g>
<g transform="matrix(1 0 0 1 921.16 762.1)"  >
<path style="stroke: none; stroke-width: 1; stroke-dasharray: none; stroke-linecap: butt; stroke-dashoffset: 0; stroke-linejoin: miter; stroke-miterlimit: 4; fill: rgb(203,200,247); fill-rule: nonzero; opacity: 1;" vector-effect="non-scaling-stroke"  transform=" translate(-981.15, -672.1)" d="M 1006.33049 695.55305 C 1006.1447341810863 695.4539622978723 1005.9427366811078 695.3889361925526 1005.73406 695.36105 C 1004.6899234620444 695.1952700451653 1003.6553398130158 694.9740911843496 1002.63469 694.69845 C 1001.6097390117384 694.4203333625446 1000.6680969146928 693.8964040402566 999.89141 693.17209 C 999.6014953381186 692.8317131146105 999.2777720969507 692.5216499160246 998.92522 692.24667 C 998.5597994242362 691.9709478332002 998.0665332670204 691.9355084118062 997.66545 692.15616 C 997.625058893775 692.1879634402532 997.5877085263425 692.223449134865 997.5538799999999 692.26216 Q 997.3396499999999 692.12062 997.1251699999999 691.97916 Q 995.9829599999999 691.2273299999999 994.82976 690.49241 L 994.79851 690.4725099999999 C 994.8204691799531 690.3517361647986 994.8212136496802 690.2280594394073 994.80071 690.1070299999999 C 994.666458675046 689.709447349797 994.3950436551323 689.3726485462373 994.03508 689.1569599999999 C 995.02727 689.14744 996.02459 689.0568599999999 997.01067 688.9526099999999 C 997.9498324169309 688.9686745475985 998.8574741682818 688.613891869769 999.53679 687.9651899999999 C 999.6391038319633 687.8524552665408 999.7010196318943 687.7088950413372 999.71279 687.5571099999999 C 999.71401 687.2464399999999 999.39345 687.0432499999998 999.10598 686.9255099999998 C 998.7233158319762 686.7689018876534 998.3257217373286 686.651602164403 997.9193300000001 686.5754199999998 C 997.635242027712 686.53551484958 997.3541097778512 686.4768330231756 997.0777800000001 686.3997599999998 C 996.8317893162808 686.3102671117248 996.5946108209533 686.1981956697124 996.3692800000001 686.0649799999998 Q 995.6361200000001 685.6614199999998 994.9029700000001 685.2579099999998 C 994.694704998814 685.1568516622161 994.5033822813741 685.0240889308827 994.3358300000001 684.8643599999998 C 994.0868300000001 684.6008699999998 993.9767 684.2284899999999 993.72292 683.9695799999998 C 993.48915 683.7309899999998 992.54372 683.4169099999998 992.4084700000001 683.9057399999998 C 992.3550000000001 684.0987899999998 992.5589800000001 684.3124799999998 992.5836400000001 684.5283599999998 C 992.2565410951548 684.3228845603533 991.9177060391916 684.1367134340854 991.5688700000001 683.9707999999998 C 991.58779 683.9276499999999 991.61293 683.8884699999999 991.6292900000001 683.8437999999999 C 990.006881235187 682.5433959732403 988.7180458785158 680.8747684489816 987.8697700000001 678.9764299999998 C 988.0151600000002 678.9796599999999 988.1604200000002 678.9889399999998 988.3057700000002 678.9877799999998 C 988.5531646500724 679.0105292204481 988.8010679837578 678.949970047898 989.0101100000002 678.8157199999998 C 989.1847885223791 678.6568659166859 989.2768211270792 678.4265797897226 989.2597400000002 678.1910899999998 C 989.2409507708157 677.9589794364027 989.1839959723885 677.7315589296616 989.0911700000001 677.5179899999998 C 988.8838597055677 676.8779185577212 988.5531695436393 676.2846575738702 988.1177800000002 675.7717199999998 C 987.6959877541215 675.3643907996665 987.2152653385284 675.022895843849 986.6917800000001 674.7587199999998 L 986.6073100000001 674.7112399999999 C 986.5716600000001 674.6032399999999 986.5391900000001 674.4942399999999 986.4961000000001 674.3886699999998 C 986.1803267705536 673.7323554425858 985.8231186619693 673.0967951549102 985.42664 672.4858399999998 C 984.8686821651191 671.4628458258503 984.4570768328658 670.36659827207 984.20387 669.2291799999998 C 984.1102195712966 668.536293032173 983.8448984973112 667.8777942106659 983.4320200000001 667.3135299999998 C 982.6688300000001 666.4724699999998 981.3600200000001 666.4937099999997 980.2315800000001 666.6209099999998 C 979.5877800000001 666.6934799999998 978.9469100000001 666.7904599999997 978.3067700000001 666.8899099999998 C 978.3006700000002 666.8738599999998 978.3003000000001 666.8561599999997 978.2938300000002 666.8402299999998 C 978.2135641567614 666.6895449183445 978.1635131981702 666.5246288101803 978.1464900000002 666.3547499999997 C 978.1624556893486 666.2158423253435 978.1928531809956 666.0789765299872 978.2371900000002 665.9463699999998 C 978.3070691275657 665.6115882997797 978.2015247439977 665.2642756584378 977.9571900000002 665.0249799999998 C 977.9305800000002 664.9994699999997 977.9041900000002 664.9707199999998 977.8777200000002 664.9426999999998 Q 977.9833800000001 664.6933099999999 978.0717200000001 664.4395299999999 C 978.1791282074266 664.3133545108044 978.2300133526752 664.1486095599107 978.2124700000002 663.9838399999999 C 978.3287077240287 663.5740320916668 978.3901553600786 663.1506338705215 978.3952100000001 662.7246899999999 C 978.2637268449066 661.7837015734325 978.2298568804171 660.8316429099821 978.2941400000001 659.8836899999999 C 978.2608006402809 659.6488818194075 978.1753837659946 659.4244985240075 978.0441400000001 659.2269599999998 C 978.0207 659.1953999999998 977.9816400000001 659.1809599999998 977.9550300000001 659.1528599999998 C 978.1498281429406 658.894524362134 978.3750861554693 658.6606373181367 978.6259200000001 658.4562699999998 C 979.1188416777701 658.0758304155373 979.6459123210955 657.7418229499281 980.2003900000001 657.4585199999998 C 980.3332 657.3853999999998 980.5185000000001 657.3333999999998 980.6454500000001 657.2495999999998 C 980.8401292381656 657.2823930342588 981.0367724338203 657.3022133641745 981.2340800000001 657.3089299999998 C 982.7221477252383 657.3179687660626 984.1179668161716 656.5889398309426 984.9607545545273 655.3625075734311 C 985.8035422928829 654.1360753159196 985.9837319604634 652.571682204661 985.4418400000001 651.1857599999998 C 985.8523284233008 651.0860196787512 986.2054783491129 650.8254274656379 986.4218400000001 650.4626099999998 C 986.6414401483273 650.0813420913174 986.7728312305892 649.6557186333298 986.80636 649.2170099999998 C 986.8773052513153 648.8768141232814 986.80955068301 648.5223723854135 986.6181300000001 648.2323299999998 C 986.4497989509365 648.0691663989771 986.2564873199004 647.9339363670884 986.0455000000001 647.8317499999998 C 985.7545306461885 647.6500417399918 985.5102027964858 647.4026622752441 985.33212 647.1094599999998 C 985.2056600000001 646.9007199999998 985.11512 646.6725699999998 985.00143 646.4566299999998 C 984.6168836169595 645.6412574798488 983.8110171148628 645.1071962557573 982.91025 645.0707699999998 C 982.4902888486239 645.1241738671935 982.0745987110212 645.2070178373818 981.66625 645.3186899999998 C 980.26634 645.5641799999999 978.74449 644.8234499999999 977.44579 645.4011499999998 C 977.1261489080673 645.5565816188432 976.8290839646717 645.754679860432 976.56273 645.9900199999998 Q 976.01415 646.4423799999998 975.50829 646.9430799999999 C 975.2153722925583 647.1927321907169 974.9936847814309 647.5154069225129 974.86571 647.8783799999999 C 974.6893200000001 648.5409199999999 975.10887 649.2812199999998 974.84191 649.9127499999998 C 974.7505152342806 650.0935193953188 974.6414608087673 650.2648035446146 974.51634 650.4240999999998 C 974.22167 650.8562299999999 974.54173 652.5432399999999 974.50926 653.0652699999998 C 974.4716356117892 653.3208547568286 974.5365785024907 653.5809498299107 974.68993 653.7888499999998 C 974.7289983085552 653.8281229377606 974.7732270703714 653.8618992189375 974.8214 653.8892499999998 C 972.6432761657327 654.6662706614925 970.5130804800871 655.5716021583025 968.442 656.6004899999998 C 965.9555529592836 657.803247525239 963.8917531151951 659.7309691679193 962.52245 662.1297299999998 C 962.1708900000001 662.8152699999997 961.90355 663.5403699999997 961.58545 664.2421499999998 C 961.1615 665.1780099999999 960.64845 666.0703399999998 960.13611 666.9610299999998 C 959.5112300000001 668.0473899999998 958.88525 669.1356499999998 958.16259 670.1595699999998 C 957.7505524189035 670.7024324421558 957.3691037385423 671.2678466395761 957.02002 671.8531799999998 C 957.0107186080362 671.9384758621874 957.0081873604427 672.0243744347541 957.0124500000001 672.1100699999998 C 957.02633635616 672.1909029353527 957.0183256290653 672.2739796999638 956.9892500000001 672.3506699999998 C 956.925815885976 672.4407160470845 956.8257130801742 672.4979919490686 956.71594 672.5070499999998 L 956.69894 672.5511099999998 C 956.5356898259399 673.0773978750004 956.4003282499278 673.6119345700939 956.29342 674.1524899999997 C 956.0800499999999 675.0114899999998 955.73996 675.8405999999998 955.6091 676.7160299999997 C 955.4535737066444 676.9401385786498 955.4466123534736 677.2353817706357 955.5914034586181 677.4665713439745 C 955.7361945637625 677.6977609173132 956.0048595423782 677.820382824481 956.2743800000001 677.7782899999997 C 957.02353 678.1114799999997 957.7453300000001 678.5016099999997 958.46481 678.8951099999997 C 958.45419 678.9478999999997 958.43771 678.9987499999997 958.431 679.0526999999997 C 958.382227373453 680.1891990365183 958.9908325214614 681.2525978950205 959.99545 681.7862199999997 C 960.9881517955379 682.2933671620332 962.0753562277 682.5888320564653 963.1882 682.6538999999997 C 963.6196000000001 682.7056599999996 964.0536800000001 682.7297599999997 964.48581 682.7738299999996 C 965.1163537532731 683.1245020317316 965.7875461883272 683.3964744603444 966.48434 683.5836499999996 C 966.6364909378349 683.6279848555193 966.7937005200403 683.6526192186294 966.9521199999999 683.6569499999996 C 967.3813273266926 683.6281984246465 967.7744576943969 683.4067236730615 968.02145 683.0545299999995 C 971.739887661094 683.2599730990627 975.4685382439997 683.1838894458004 979.1754999999999 682.8269299999995 C 980.2015797812976 682.5880555184272 981.2802852171578 682.7552803381534 982.18588 683.2936099999995 C 982.98996 683.9470499999995 983.15158 685.1053699999995 983.74899 685.9520499999995 C 984.1833280284905 686.4740481870541 984.670728264779 686.9495042940607 985.20334 687.3707599999996 C 986.2621905333802 688.4915305304517 987.1983992331213 689.7221096723887 987.99606 691.0415899999996 C 988.8017016991528 692.3739732995598 989.9683299780535 693.4508529403764 991.36081 694.1474899999996 C 991.6112953693693 693.7479003889648 991.9748045125252 693.4316975877732 992.40524 693.2389799999996 C 992.51657 693.1727599999996 992.6227700000001 693.0954899999996 992.7321400000001 693.0242599999996 C 992.8791904173146 693.2629834089545 993.0502886417129 693.4860289870179 993.2427600000001 693.6899099999996 C 993.3859500000001 693.8448199999996 993.52853 694.0084499999996 993.6624400000001 694.1772699999996 C 993.65817 694.1776999999996 993.6545100000001 694.1751999999996 993.65024 694.1758699999996 C 993.4555300000001 694.2064499999996 993.39035 694.4497299999996 993.36801 694.6455399999995 Q 993.2396600000001 695.7701599999996 993.1110100000001 696.8947399999995 C 993.0806555683372 697.0429017648686 993.0910230607585 697.1965203559059 993.14101 697.3392599999995 C 993.2333180913372 697.4942821798511 993.3761628856696 697.6128157463945 993.54555 697.6749499999995 C 994.2413730608429 698.0088597235266 994.9943136226907 698.2074935033875 995.7643 698.2602799999995 C 996.15175 698.2865899999995 996.5411600000001 698.2757799999995 996.9278800000001 698.3098399999996 C 997.5622306150727 698.3920163098978 998.1902331724575 698.5173909632384 998.8075100000001 698.6850899999996 C 1000.4878576680643 699.0682047986242 1002.2152092721011 699.203466617064 1003.9347100000001 699.0865799999996 C 1004.289764106123 699.0779733701731 1004.6410285757472 699.0114306548527 1004.9746300000002 698.8895799999996 C 1005.3691706318705 698.7003104805619 1005.719043752057 698.4294518531825 1006.0011200000001 698.0949099999996 C 1006.3594290779001 697.7549203964429 1006.6251935172121 697.3292347413799 1006.7733300000001 696.8580299999995 C 1006.9146437239173 696.3731973521376 1006.7376912508594 695.8517461772416 1006.33049 695.55305 Z" stroke-linecap="round" />
</g>
<g transform="matrix(1 0 0 1 918.37 735.27)"  >
<path style="stroke: none; stroke-width: 1; stroke-dasharray: none; stroke-linecap: butt; stroke-dashoffset: 0; stroke-linejoin: miter; stroke-miterlimit: 4; fill: rgb(255,101,132); fill-rule: nonzero; opacity: 1;" vector-effect="non-scaling-stroke"  transform=" translate(-978.38, -645.27)" d="M 978.66619 645.31873 C 978.8321900000001 645.28962 978.9957800000001 645.2444499999999 979.15959 645.20228 C 978.6330906542281 645.1369039065461 978.0986510755775 645.1885456614083 977.5944099999999 645.35352 C 977.9517424009999 645.386004583324 978.3117164957796 645.3743198170871 978.66619 645.31873 Z" stroke-linecap="round" />
</g>
<g transform="matrix(1 0 0 1 920.86 745.98)"  >
<path style="stroke: none; stroke-width: 1; stroke-dasharray: none; stroke-linecap: butt; stroke-dashoffset: 0; stroke-linejoin: miter; stroke-miterlimit: 4; fill: rgb(255,101,132); fill-rule: nonzero; opacity: 1;" vector-effect="non-scaling-stroke"  transform=" translate(-980.86, -655.98)" d="M 982.00139 646.45667 C 982.11504 646.6726100000001 982.2056200000001 646.90076 982.33208 647.1095 C 982.5101627964858 647.4027022752443 982.7544906461885 647.6500817399921 983.04546 647.8317900000001 C 983.2564473199004 647.9339763670887 983.4497589509365 648.0692063989774 983.61809 648.2323700000001 C 983.80951068301 648.5224123854138 983.8772652513153 648.8768541232816 983.80632 649.2170500000001 C 983.7727912305892 649.65575863333 983.6414001483273 650.0813820913177 983.4218000000001 650.46265 C 983.2054383491129 650.8254674656381 982.8522884233008 651.0860596787514 982.4418000000001 651.1858000000001 C 983.0686255273386 652.6685630356369 982.8374754364054 654.3750933481411 981.8387913158399 655.6376805684569 C 980.8401071952744 656.9002677887726 979.2326668748683 657.5181769150745 977.6454100000001 657.2496400000001 C 977.5184100000001 657.3334400000001 977.3331600000001 657.3854400000001 977.2003500000001 657.4585600000001 C 976.6458723210955 657.7418629499284 976.1188016777701 658.0758704155377 975.62588 658.4563100000001 C 975.3750461554692 658.660677318137 975.1497881429406 658.8945643621344 974.9549900000001 659.1529000000002 C 974.9816000000001 659.1810400000002 975.02066 659.1954400000002 975.0441000000001 659.2270000000002 C 975.1753437659946 659.4245385240079 975.2607606402809 659.6489218194079 975.2941000000001 659.8837300000002 C 975.229816880417 660.8316829099824 975.2636868449066 661.7837415734328 975.3951700000001 662.7247300000002 C 975.3901153600785 663.1506738705218 975.3286677240287 663.5740720916672 975.2124300000002 663.9838800000002 C 975.2299733526752 664.1486495599111 975.1790882074266 664.3133945108048 975.0716800000001 664.4395700000002 Q 974.9828800000001 664.6933500000002 974.8776800000002 664.9427400000002 C 974.9041700000001 664.9707400000002 974.9305400000002 664.9995100000002 974.9571500000002 665.0250200000002 C 975.2014847439976 665.2643156584381 975.3070291275657 665.61162829978 975.2371500000002 665.9464100000001 C 975.1928131809956 666.0790165299876 975.1624156893486 666.2158823253438 975.1464500000002 666.3547900000001 C 975.1634731981702 666.5246688101806 975.2135241567614 666.6895849183448 975.2937900000002 666.8402700000001 C 975.3002600000002 666.8562000000002 975.3006300000002 666.8739000000002 975.3067300000001 666.8899500000001 C 975.9468700000001 666.7905200000001 976.5877300000001 666.6935400000001 977.2315400000001 666.6209500000001 C 977.5487169672853 666.5839335425496 977.8675656473218 666.5630100574855 978.1868600000001 666.5582600000001 C 978.1627467656582 666.492984452828 978.1491083090754 666.4243061670064 978.1464500000002 666.3547700000001 C 978.1624156893486 666.2158623253439 978.1928131809956 666.0789965299876 978.2371500000002 665.9463900000002 C 978.3070291275657 665.6116082997801 978.2014847439976 665.2642956584382 977.9571500000002 665.0250000000002 C 977.9305400000002 664.9994900000002 977.9041500000002 664.9707400000002 977.8776800000002 664.9427200000002 Q 977.9833400000001 664.6933300000003 978.0716800000001 664.4395500000003 C 978.1790882074266 664.3133745108048 978.2299733526752 664.1486295599111 978.2124300000002 663.9838600000003 C 978.3286677240287 663.5740520916672 978.3901153600785 663.1506538705219 978.3951700000001 662.7247100000003 C 978.2636868449066 661.7837215734329 978.229816880417 660.8316629099825 978.2941000000001 659.8837100000003 C 978.2607606402809 659.6489018194079 978.1753437659946 659.4245185240079 978.0441000000001 659.2269800000003 C 978.02066 659.1954200000002 977.9816000000001 659.1809800000002 977.9549900000001 659.1528800000002 C 978.1497881429406 658.8945443621344 978.3750461554692 658.660657318137 978.62588 658.4562900000002 C 979.1188016777701 658.0758504155377 979.6458723210955 657.7418429499285 980.2003500000001 657.4585400000002 C 980.33316 657.3854200000002 980.5184600000001 657.3334200000002 980.6454100000001 657.2496200000002 C 980.8400892381655 657.2824130342592 981.0367324338202 657.3022333641749 981.23404 657.3089500000002 C 982.7221077252383 657.317988766063 984.1179268161716 656.588959830943 984.9607145545273 655.3625275734315 C 985.8035022928829 654.13609531592 985.9836919604634 652.5717022046614 985.4418000000001 651.1857800000002 C 985.8522884233008 651.0860396787516 986.2054383491129 650.8254474656383 986.4218000000001 650.4626300000002 C 986.6414001483273 650.0813620913178 986.7727912305892 649.6557386333302 986.80632 649.2170300000002 C 986.8772652513153 648.8768341232818 986.80951068301 648.5223923854139 986.61809 648.2323500000002 C 986.4497589509365 648.0691863989775 986.2564473199004 647.9339563670889 986.04546 647.8317700000002 C 985.7544906461885 647.6500617399922 985.5101627964858 647.4026822752445 985.33208 647.1094800000002 C 985.2056200000001 646.9007400000002 985.11508 646.6725900000002 985.00139 646.4566500000002 C 984.6168436169595 645.6412774798492 983.8109771148628 645.1072162557577 982.91021 645.0707900000002 C 982.4902488486239 645.1241938671939 982.0745587110212 645.2070378373822 981.66621 645.3187100000002 C 981.4370620059367 645.3551863184501 981.205044897098 645.3705108556769 980.97309 645.3644900000003 C 981.4090710704571 645.6279284484735 981.7646735391442 646.0056216355304 982.00139 646.45667 Z" stroke-linecap="round" />
</g>
<g transform="matrix(0.9 0 0 1 934.48 772.84)"  >
<path style="stroke: none; stroke-width: 1; stroke-dasharray: none; stroke-linecap: butt; stroke-dashoffset: 0; stroke-linejoin: miter; stroke-miterlimit: 4; fill: rgb(255,101,132); fill-rule: nonzero; opacity: 1;" vector-effect="non-scaling-stroke"  transform=" translate(-993.15, -682.84)" d="M 1006.33049 695.55305 C 1006.1447341810863 695.4539622978723 1005.9427366811078 695.3889361925526 1005.73406 695.36105 C 1004.6899234620444 695.1952700451653 1003.6553398130158 694.9740911843496 1002.63469 694.69845 C 1001.6097390117384 694.4203333625446 1000.6680969146928 693.8964040402566 999.89141 693.17209 C 999.6014953381186 692.8317131146105 999.2777720969507 692.5216499160246 998.92522 692.24667 C 998.5597994242362 691.9709478332002 998.0665332670204 691.9355084118062 997.66545 692.15616 C 997.625058893775 692.1879634402532 997.5877085263425 692.223449134865 997.5538799999999 692.26216 Q 997.3396499999999 692.12062 997.1251699999999 691.97916 Q 995.9829599999999 691.2273299999999 994.82976 690.49241 L 994.79851 690.4725099999999 C 994.8204691799531 690.3517361647986 994.8212136496802 690.2280594394073 994.80071 690.1070299999999 C 994.666458675046 689.709447349797 994.3950436551323 689.3726485462373 994.03508 689.1569599999999 C 995.02727 689.14744 996.02459 689.0568599999999 997.01067 688.9526099999999 C 997.9498324169309 688.9686745475985 998.8574741682818 688.613891869769 999.53679 687.9651899999999 C 999.6391038319633 687.8524552665408 999.7010196318943 687.7088950413372 999.71279 687.5571099999999 C 999.71401 687.2464399999999 999.39345 687.0432499999998 999.10598 686.9255099999998 C 998.7233158319762 686.7689018876534 998.3257217373286 686.651602164403 997.9193300000001 686.5754199999998 C 997.635242027712 686.53551484958 997.3541097778512 686.4768330231756 997.0777800000001 686.3997599999998 C 996.8317893162808 686.3102671117248 996.5946108209533 686.1981956697124 996.3692800000001 686.0649799999998 Q 995.6361200000001 685.6614199999998 994.9029700000001 685.2579099999998 C 994.694704998814 685.1568516622161 994.5033822813741 685.0240889308827 994.3358300000001 684.8643599999998 C 994.0868300000001 684.6008699999998 993.9767 684.2284899999999 993.72292 683.9695799999998 C 993.48915 683.7309899999998 992.54372 683.4169099999998 992.4084700000001 683.9057399999998 C 992.3550000000001 684.0987899999998 992.5589800000001 684.3124799999998 992.5836400000001 684.5283599999998 C 992.2565410951548 684.3228845603533 991.9177060391916 684.1367134340854 991.5688700000001 683.9707999999998 C 991.58779 683.9276499999999 991.61293 683.8884699999999 991.6292900000001 683.8437999999999 C 990.006881235187 682.5433959732403 988.7180458785158 680.8747684489816 987.8697700000001 678.9764299999998 C 988.0151600000002 678.9796599999999 988.1604200000002 678.9889399999998 988.3057700000002 678.9877799999998 C 988.5531646500724 679.0105292204481 988.8010679837578 678.949970047898 989.0101100000002 678.8157199999998 C 989.1847885223791 678.6568659166859 989.2768211270792 678.4265797897226 989.2597400000002 678.1910899999998 C 989.2409507708157 677.9589794364027 989.1839959723885 677.7315589296616 989.0911700000001 677.5179899999998 C 988.8838597055677 676.8779185577212 988.5531695436393 676.2846575738702 988.1177800000002 675.7717199999998 C 987.6959877541215 675.3643907996665 987.2152653385284 675.022895843849 986.6917800000001 674.7587199999998 L 986.6073100000001 674.7112399999999 C 986.5716600000001 674.6032399999999 986.5391900000001 674.4942399999999 986.4961000000001 674.3886699999998 C 986.1803267705536 673.7323554425858 985.8231186619693 673.0967951549102 985.42664 672.4858399999998 C 984.8686821651191 671.4628458258503 984.4570768328658 670.36659827207 984.20387 669.2291799999998 C 984.1102195712966 668.536293032173 983.8448984973112 667.8777942106659 983.4320200000001 667.3135299999998 C 982.6688300000001 666.4724699999998 981.3600200000001 666.4937099999997 980.2315800000001 666.6209099999998 C 979.9793800000001 666.6493499999998 979.7290100000001 666.6916499999998 979.4775800000001 666.7262499999997 C 979.8424067745073 666.8334104956631 980.1719441751578 667.0361729970032 980.4320500000001 667.3135299999997 C 980.8449284973112 667.8777942106658 981.1102495712967 668.5362930321729 981.2039000000001 669.2291799999997 C 981.4571068328659 670.3665982720698 981.8687121651192 671.4628458258502 982.4266700000001 672.4858399999997 C 982.8231486619693 673.0967951549101 983.1803567705538 673.7323554425857 983.4961300000001 674.3886699999997 C 983.5392200000001 674.4942599999997 983.5716900000001 674.6032699999997 983.6073400000001 674.7112399999997 L 983.6918100000001 674.7587199999997 C 984.2152953385284 675.0228958438489 984.6960177541215 675.3643907996664 985.1178100000002 675.7717199999997 C 985.5531995436394 676.28465757387 985.8838897055678 676.877918557721 986.0912000000002 677.5179899999997 C 986.1840259723886 677.7315589296614 986.2409807708158 677.9589794364026 986.2597700000002 678.1910899999997 C 986.2768511270792 678.4265797897225 986.1848185223791 678.6568659166858 986.0101400000002 678.8157199999997 C 985.8010979837578 678.9499700478979 985.5531946500724 679.010529220448 985.3058000000002 678.9877799999997 C 985.1604100000002 678.9889399999997 985.0151500000002 678.9796599999997 984.8698000000002 678.9764299999997 C 985.7180758785158 680.8747684489815 987.0069112351871 682.5433959732402 988.6293200000001 683.8437999999998 C 988.6129600000002 683.8884799999997 988.5878200000001 683.9276599999997 988.5689000000001 683.9707999999997 C 988.9177360391916 684.1367134340853 989.2565710951549 684.3228845603531 989.5836700000001 684.5283599999997 C 989.5590100000001 684.3124799999997 989.35503 684.0987899999997 989.4085000000001 683.9057399999997 C 989.5437500000002 683.4169099999997 990.4891800000001 683.7309899999997 990.7229500000001 683.9695799999997 C 990.9767300000001 684.2284899999997 991.08684 684.6008699999998 991.3358600000001 684.8643599999997 C 991.5034122813742 685.0240889308826 991.694734998814 685.156851662216 991.9030000000001 685.2579099999997 Q 992.6361500000002 685.6613799999997 993.3693100000002 686.0649799999997 C 993.5946408209534 686.1981956697123 993.8318193162809 686.3102671117247 994.0778100000001 686.3997599999997 C 994.3541397778513 686.4768330231755 994.6352720277121 686.5355148495798 994.9193600000001 686.5754199999997 C 995.3257517373287 686.6516021644029 995.7233458319762 686.7689018876533 996.1060100000001 686.9255099999997 C 996.3934800000001 687.0432499999997 996.71401 687.2464399999997 996.7128200000001 687.5571099999997 C 996.7010496318943 687.7088950413371 996.6391338319634 687.8524552665407 996.53682 687.9651899999998 C 995.8575041682818 688.6138918697688 994.949862416931 688.9686745475984 994.0107 688.9526099999998 C 993.02462 689.0568599999998 992.0273000000001 689.1474399999998 991.03511 689.1569599999998 C 991.3950736551324 689.3726485462372 991.666488675046 689.7094473497968 991.80074 690.1070299999998 C 991.8212436496802 690.2280594394072 991.8204991799531 690.3517361647985 991.79854 690.4725099999998 L 991.82979 690.4924099999998 Q 992.98299 691.2272999999998 994.1252 691.9791599999999 Q 994.3398 692.1203399999998 994.55391 692.2621599999999 C 994.5877385263425 692.2234491348648 994.625088893775 692.187963440253 994.66548 692.1561599999999 C 995.0665632670205 691.935508411806 995.5598294242362 691.9709478332001 995.92525 692.2466699999999 C 996.2778020969507 692.5216499160244 996.6015253381187 692.8317131146104 996.89144 693.1720899999999 C 997.6681269146928 693.8964040402565 998.6097690117384 694.4203333625445 999.63472 694.6984499999999 C 1000.6553698130158 694.9740911843495 1001.6899534620444 695.1952700451652 1002.73409 695.3610499999999 C 1002.9427666811079 695.3889361925525 1003.1447641810863 695.4539622978722 1003.3305200000001 695.5530499999999 C 1003.7377614418685 695.8517488114352 1003.9147298494605 696.3732395882498 1003.7733900000001 696.8580999999999 C 1003.6252535172121 697.3293047413803 1003.3594890779001 697.7549903964434 1003.0011800000001 698.09498 C 1002.719103752057 698.4295218531829 1002.3692306318704 698.7003804805623 1001.9746900000001 698.88965 C 1001.7305133413789 698.9822702022215 1001.4740896865972 699.0386348242143 1001.2135800000001 699.0569499999999 C 1002.1185279065625 699.1368592497075 1003.0282948877257 699.1467787284397 1003.9347700000001 699.0866199999999 C 1004.289824106123 699.0780133701735 1004.6410885757472 699.011470654853 1004.9746900000001 698.8896199999999 C 1005.3692306318704 698.7003504805623 1005.719103752057 698.4294918531829 1006.0011800000001 698.0949499999999 C 1006.3594890779001 697.7549603964433 1006.6252535172121 697.3292747413802 1006.7733900000001 696.8580699999999 C 1006.914709490583 696.3732123990202 1006.7377300708681 695.851736485007 1006.33049 695.55305 Z" stroke-linecap="round" />
</g>
<g transform="matrix(1 0 0 1 929.76 783.1)"  >
<path style="stroke: none; stroke-width: 1; stroke-dasharray: none; stroke-linecap: butt; stroke-dashoffset: 0; stroke-linejoin: miter; stroke-miterlimit: 4; fill: rgb(255,101,132); fill-rule: nonzero; opacity: 1;" vector-effect="non-scaling-stroke"  transform=" translate(-989.77, -693.1)" d="M 989.69426 693.04914 C 989.74382 693.09449 989.7922599999999 693.14136 989.84294 693.1851899999999 C 989.80608 693.1313499999999 989.76519 693.0796599999999 989.7321 693.0242999999999 Z" stroke-linecap="round" />
</g>
<g transform="matrix(1 0 0 1 963.81 763.41)"  >
<path style="stroke: none; stroke-width: 1; stroke-dasharray: none; stroke-linecap: butt; stroke-dashoffset: 0; stroke-linejoin: miter; stroke-miterlimit: 4; fill: rgb(255,101,132); fill-rule: nonzero; opacity: 1;" vector-effect="non-scaling-stroke"  transform=" translate(-1023.81, -673.41)" d="M 1034.36394 684.73783 C 1034.36394 695.33268 1029.64008 692.4113 1023.8129399999999 692.4113 C 1017.9857999999999 692.4113 1013.2619399999999 695.33268 1013.2619399999999 684.73783 C 1013.2619399999999 674.1429800000001 1023.8129399999999 654.04395 1023.8129399999999 654.04395 C 1023.8129399999999 654.04395 1034.36394 674.143 1034.36394 684.73783 Z" stroke-linecap="round" />
</g>
<g transform="matrix(1 0 0 1 963.82 773.64)"  >
<path style="stroke: none; stroke-width: 1; stroke-dasharray: none; stroke-linecap: butt; stroke-dashoffset: 0; stroke-linejoin: miter; stroke-miterlimit: 4; fill: rgb(0,0,0); fill-rule: nonzero; opacity: 0.1;" vector-effect="non-scaling-stroke"  transform=" translate(-1023.81, -683.64)" d="M 1028.60883 688.79149 C 1028.60883 693.6073299999999 1026.4616299999998 692.2794299999999 1023.8129199999998 692.2794299999999 C 1021.1642099999999 692.2794299999999 1019.0169999999998 693.6073299999999 1019.0169999999998 688.79149 C 1019.0169999999998 683.97565 1023.8129199999998 674.8397299999999 1023.8129199999998 674.8397299999999 C 1023.8129199999998 674.8397299999999 1028.60883 683.97565 1028.60883 688.79149 Z" stroke-linecap="round" />
</g>
<g transform="matrix(1 0 0 1 978.11 744.17)"  >
<path style="stroke: none; stroke-width: 1; stroke-dasharray: none; stroke-linecap: butt; stroke-dashoffset: 0; stroke-linejoin: miter; stroke-miterlimit: 4; fill: rgb(255,101,132); fill-rule: nonzero; opacity: 1;" vector-effect="non-scaling-stroke"  transform=" translate(-1038.11, -654.17)" d="M 1037.03806 656.42815 C 1037.03806 656.42815 1039.23006 654.14887 1039.1864400000002 651.91323" stroke-linecap="round" />
</g>
<g transform="matrix(1 0 0 1 953.13 725.39)"  >
<path style="stroke: none; stroke-width: 1; stroke-dasharray: none; stroke-linecap: butt; stroke-dashoffset: 0; stroke-linejoin: miter; stroke-miterlimit: 4; fill: rgb(255,101,132); fill-rule: nonzero; opacity: 1;" vector-effect="non-scaling-stroke"  transform=" translate(-1013.13, -635.39)" d="M 1014.57452 637.4359 C 1014.57452 637.4359 1013.65942 634.4088999999999 1011.68838 633.35299" stroke-linecap="round" />
</g>
<g transform="matrix(1 0 0 1 931.13 684.39)"  >
<path style="stroke: none; stroke-width: 1; stroke-dasharray: none; stroke-linecap: butt; stroke-dashoffset: 0; stroke-linejoin: miter; stroke-miterlimit: 4; fill: rgb(255,101,132); fill-rule: nonzero; opacity: 1;" vector-effect="non-scaling-stroke"  transform=" translate(-991.13, -594.39)" d="M 992.57452 596.4359 C 992.57452 596.4359 991.65942 593.4088999999999 989.68838 592.35299" stroke-linecap="round" />
</g>
<g transform="matrix(1 0 0 1 957.13 739.39)"  >
<path style="stroke: none; stroke-width: 1; stroke-dasharray: none; stroke-linecap: butt; stroke-dashoffset: 0; stroke-linejoin: miter; stroke-miterlimit: 4; fill: rgb(255,101,132); fill-rule: nonzero; opacity: 1;" vector-effect="non-scaling-stroke"  transform=" translate(-1017.13, -649.39)" d="M 1018.57452 651.4359 C 1018.57452 651.4359 1017.65942 648.4088999999999 1015.68838 647.35299" stroke-linecap="round" />
</g>
<g transform="matrix(1 0 0 1 954.13 690.39)"  >
<path style="stroke: none; stroke-width: 1; stroke-dasharray: none; stroke-linecap: butt; stroke-dashoffset: 0; stroke-linejoin: miter; stroke-miterlimit: 4; fill: rgb(255,101,132); fill-rule: nonzero; opacity: 1;" vector-effect="non-scaling-stroke"  transform=" translate(-1014.13, -600.39)" d="M 1015.57452 602.4359 C 1015.57452 602.4359 1014.65942 599.4088999999999 1012.68838 598.35299" stroke-linecap="round" />
</g>
<g transform="matrix(1 0 0 1 948.13 708.39)"  >
<path style="stroke: none; stroke-width: 1; stroke-dasharray: none; stroke-linecap: butt; stroke-dashoffset: 0; stroke-linejoin: miter; stroke-miterlimit: 4; fill: rgb(255,101,132); fill-rule: nonzero; opacity: 1;" vector-effect="non-scaling-stroke"  transform=" translate(-1008.13, -618.39)" d="M 1009.57452 620.4359 C 1009.57452 620.4359 1008.65942 617.4088999999999 1006.68838 616.35299" stroke-linecap="round" />
</g>
<g transform="matrix(1 0 0 1 976.11 775.17)"  >
<path style="stroke: none; stroke-width: 1; stroke-dasharray: none; stroke-linecap: butt; stroke-dashoffset: 0; stroke-linejoin: miter; stroke-miterlimit: 4; fill: rgb(255,101,132); fill-rule: nonzero; opacity: 1;" vector-effect="non-scaling-stroke"  transform=" translate(-1036.11, -685.17)" d="M 1035.03806 687.42815 C 1035.03806 687.42815 1037.23006 685.14887 1037.1864400000002 682.91323" stroke-linecap="round" />
</g>
<g transform="matrix(1 0 0 1 980.11 758.17)"  >
<path style="stroke: none; stroke-width: 1; stroke-dasharray: none; stroke-linecap: butt; stroke-dashoffset: 0; stroke-linejoin: miter; stroke-miterlimit: 4; fill: rgb(255,101,132); fill-rule: nonzero; opacity: 1;" vector-effect="non-scaling-stroke"  transform=" translate(-1040.11, -668.17)" d="M 1039.03806 670.42815 C 1039.03806 670.42815 1041.23006 668.14887 1041.1864400000002 665.91323" stroke-linecap="round" />
</g>
<g transform="matrix(0.95 -0.32 0.32 0.95 939.81 762.04)"  >
<rect style="stroke: none; stroke-width: 1; stroke-dasharray: none; stroke-linecap: butt; stroke-dashoffset: 0; stroke-linejoin: miter; stroke-miterlimit: 4; fill: rgb(255,101,132); fill-rule: nonzero; opacity: 1;" vector-effect="non-scaling-stroke"  x="-12.65" y="-0.5" rx="0" ry="0" width="25.3" height="1" />
</g>
<g transform="matrix(1 0 0 1 947.33 759.19)"  >
<path style="stroke: none; stroke-width: 1; stroke-dasharray: none; stroke-linecap: butt; stroke-dashoffset: 0; stroke-linejoin: miter; stroke-miterlimit: 4; fill: rgb(255,101,132); fill-rule: nonzero; opacity: 1;" vector-effect="non-scaling-stroke"  transform=" translate(-1007.33, -669.19)" d="M 1009.91214 668.52342 C 1010.8129200000001 672.04395 1009.30053 671.2029699999999 1007.92106 671.48842 C 1006.54159 671.7738700000001 1006.81292 673.04391 1004.9166700000001 669.55722 C 1003.6052000000001 667.1457800000001 1005.5282900000001 666.8776700000001 1006.9077500000001 666.59222 C 1008.2872100000001 666.3067699999999 1009.29705 666.11941 1009.91214 668.52342 Z" stroke-linecap="round" />
</g>
<g transform="matrix(1 0 0 1 598.46 579.94)"  >
<polygon style="stroke: none; stroke-width: 1; stroke-dasharray: none; stroke-linecap: butt; stroke-dashoffset: 0; stroke-linejoin: miter; stroke-miterlimit: 4; fill: rgb(63,61,86); fill-rule: nonzero; opacity: 0.1;" vector-effect="non-scaling-stroke"  points="9.29,-14.2 9.29,-14.2 9.29,-14.2 -12.53,-34.26 -12.73,-34.21 -21.46,-42.15 -21.88,-42.28 -21.43,-42.45 -114.35,-127.88 -114.35,-127.88 -204.08,-210.39 -249.81,-186.14 -253.55,-185.31 -198.75,-102.61 8.63,210.39 253.55,210.39 9.29,-14.2 " />
</g>
<g transform="matrix(1 0 0 1 367.81 381.04)"  >
<circle style="stroke: none; stroke-width: 1; stroke-dasharray: none; stroke-linecap: butt; stroke-dashoffset: 0; stroke-linejoin: miter; stroke-miterlimit: 4; fill: rgb(242,242,242); fill-rule: nonzero; opacity: 1;" vector-effect="non-scaling-stroke"  cx="0" cy="0" r="27" />
</g>
</svg>