<?xml version="1.0" encoding="UTF-8" standalone="no" ?>
<!DOCTYPE svg PUBLIC "-//W3C//DTD SVG 1.1//EN" "http://www.w3.org/Graphics/SVG/1.1/DTD/svg11.dtd">
<svg xmlns="http://www.w3.org/2000/svg" xmlns:xlink="http://www.w3.org/1999/xlink" version="1.1" width="1080" height="1080" viewBox="0 0 1080 1080" xml:space="preserve">
<desc>Created with Fabric.js 5.2.4</desc>
<defs>
</defs>
<g transform="matrix(1 0 0 1 540 540)" id="e0e35e86-494d-4284-a7ba-983ac0c211cf"  >
<rect style="stroke: none; stroke-width: 1; stroke-dasharray: none; stroke-linecap: butt; stroke-dashoffset: 0; stroke-linejoin: miter; stroke-miterlimit: 4; fill: rgb(255,255,255); fill-rule: nonzero; opacity: 1; visibility: hidden;" vector-effect="non-scaling-stroke"  x="-540" y="-540" rx="0" ry="0" width="1080" height="1080" />
</g>
<g transform="matrix(1 0 0 1 540 540)" id="a03f7aee-1edc-4563-a854-d05e20221672"  >
</g>
<g transform="matrix(1 0 0 1 498.17 540)"  >
<path style="stroke: none; stroke-width: 1; stroke-dasharray: none; stroke-linecap: butt; stroke-dashoffset: 0; stroke-linejoin: miter; stroke-miterlimit: 4; fill: rgb(242,242,242); fill-rule: nonzero; opacity: 1;" vector-effect="non-scaling-stroke"  transform=" translate(-558.17, -450)" d="M 941.609 465.12478 C 941.7199230933976 556.7945731356393 906.2871418081813 644.9374251137342 842.7590000000002 711.0247799999997 Q 837.01406 717.03978 830.9590000000001 722.76478 Q 821.734 731.53978 811.889 739.63478 C 750.4913949337383 790.2191655468964 673.8427821878299 818.6444645746901 594.309 820.3247799999999 Q 590.33406 820.41478 586.329 820.41478 C 522.899 820.41478 443.1189999999999 786.5348399999999 370.71899999999994 739.63478 Q 361.7339999999999 733.8147799999999 352.90899999999993 727.72478 Q 348.78399999999993 724.90478 344.69899999999996 722.00478 C 316.77528267155037 702.2874421459022 290.27013652615494 680.6342213917214 265.3789999999999 657.2047800000001 C 249.08186249523067 641.9098930704412 233.79943888517042 625.5685561741756 219.62900000000002 608.2847800000001 C 163.99899999999997 539.6647200000001 151.72899999999996 477.8347800000001 231.03899999999996 465.1247800000001 Q 245.12399999999997 462.8747800000001 258.37899999999996 460.3147800000001 Q 277.57908 456.6247800000001 295.12899999999996 452.34478000000007 Q 318.76899999999995 446.59978000000007 339.54904999999997 439.8847800000001 Q 346.53905 437.6347800000001 353.20905 435.2947800000001 C 418.94905 412.20478000000014 462.94905 382.0948300000001 492.89905 349.4247800000001 Q 500.51905 341.1297800000001 506.94905 332.6347800000001 C 513.507553565479 324.0145568198189 519.4649647387023 314.95314397529756 524.77905 305.5147800000001 C 532.1136269890752 292.4008073284568 538.2742831626896 278.66398299782816 543.18905 264.46478 L 543.4590499999999 263.6847800000001 C 567.28905 194.9447800000001 560.03905 131.1847800000001 586.3290499999999 109.8447800000001 C 698.7090499999999 18.614780000000096 838.6190499999999 148.5347800000001 904.2890499999999 301.7447800000001 Q 909.2540499999999 313.3247800000001 913.6290499999999 325.0447800000001 Q 915.5940499999999 330.2798500000001 917.4190499999999 335.5347800000001 Q 922.2189699999999 349.2296900000001 926.1290499999999 362.9947800000001 Q 927.6290499999999 368.2447800000001 928.9890999999999 373.4847800000001 C 929.9590999999999 377.2547800000001 930.8890999999999 381.0147800000001 931.7490999999999 384.77478000000013 C 938.139 412.30478 941.609 439.4548 941.609 465.12478 Z" stroke-linecap="round" />
</g>
<g transform="matrix(1 0 0 1 413.61 838)"  >
<path style="stroke: none; stroke-width: 1; stroke-dasharray: none; stroke-linecap: butt; stroke-dashoffset: 0; stroke-linejoin: miter; stroke-miterlimit: 4; fill: rgb(47,46,65); fill-rule: nonzero; opacity: 1;" vector-effect="non-scaling-stroke"  transform=" translate(-473.61, -748)" d="M 594.309 820.3248 Q 590.33406 820.4148 586.329 820.4148 C 522.899 820.4148 443.1189999999999 786.53486 370.71899999999994 739.6348 Q 361.7339999999999 733.8148 352.90899999999993 727.7248000000001 L 358.06899999999996 696.3248000000001 L 514.279 675.5848000000001 L 592.679 735.5348000000001 Z" stroke-linecap="round" />
</g>
<g transform="matrix(1 0 0 1 530.7 363.36)"  >
<path style="stroke: none; stroke-width: 1; stroke-dasharray: none; stroke-linecap: butt; stroke-dashoffset: 0; stroke-linejoin: miter; stroke-miterlimit: 4; fill: rgb(255,255,255); fill-rule: nonzero; opacity: 1;" vector-effect="non-scaling-stroke"  transform=" translate(-590.7, -273.36)" d="M 601.82894 259.63486 L 579.56894 259.63486 C 578.1333454311799 259.6354945901987 576.9697245901987 260.79911543118 576.96909 262.23471 L 576.96909 284.50471 C 576.9697644351905 285.1931299371945 577.2442050397797 285.8530173406801 577.7319062489855 286.338887688951 C 578.2196074581914 286.82475803722184 578.8805223953726 287.0967147921239 579.56894 287.09479999999996 L 601.82894 287.09479999999996 C 603.2612440989783 287.09531573404047 604.4240309572375 285.93700543301037 604.42904 284.50471 L 604.42904 262.23471 C 604.4247779097778 260.8005241046261 603.2631262985642 259.63898418638684 601.82894 259.63486 Z" stroke-linecap="round" />
</g>
<g transform="matrix(1 0 0 1 530.7 401.31)"  >
<path style="stroke: none; stroke-width: 1; stroke-dasharray: none; stroke-linecap: butt; stroke-dashoffset: 0; stroke-linejoin: miter; stroke-miterlimit: 4; fill: rgb(230,230,230); fill-rule: nonzero; opacity: 1;" vector-effect="non-scaling-stroke"  transform=" translate(-590.7, -311.31)" d="M 601.82894 297.58481 L 579.56894 297.58481 C 578.1332983144282 297.58547221952887 576.9696693916567 298.7491682786115 576.96909 300.18481 L 576.96909 322.45481 C 576.9697590646299 323.1432233447381 577.2442008377402 323.803104641201 577.7319058143083 324.2889618596218 C 578.2196107908765 324.77481907804264 578.8805290751186 325.0467540588815 579.56894 325.04481 L 601.82894 325.04481 C 603.2612340494238 325.04538633278713 604.4240418249957 323.8870954444632 604.42904 322.45481 L 604.42904 300.18481 C 604.4248493172203 298.75057006880235 603.2631800913139 297.5889455207632 601.82894 297.58481 Z" stroke-linecap="round" />
</g>
<g transform="matrix(1 0 0 1 530.7 439.26)"  >
<path style="stroke: none; stroke-width: 1; stroke-dasharray: none; stroke-linecap: butt; stroke-dashoffset: 0; stroke-linejoin: miter; stroke-miterlimit: 4; fill: rgb(230,230,230); fill-rule: nonzero; opacity: 1;" vector-effect="non-scaling-stroke"  transform=" translate(-590.7, -349.26)" d="M 601.82894 335.53476 L 579.56894 335.53476 C 578.1332844244056 335.53548290791866 576.969674862783 336.69920436153143 576.96909 338.13486 L 576.96909 360.39486 C 576.9677031991583 361.0848072975651 577.2411698216315 361.7468953817829 577.7290372199243 362.2347627800757 C 578.2169046182171 362.7226301783685 578.878992702435 362.99609680084166 579.56894 362.99471 L 601.82894 362.99471 C 603.2645956384686 362.9941251372171 604.4283170920813 361.8305155755944 604.42904 360.39486 L 604.42904 338.13486 C 604.4248441282625 336.700606004175 603.263193995825 335.53895587173747 601.82894 335.53476 Z" stroke-linecap="round" />
</g>
<g transform="matrix(1 0 0 1 530.7 477.21)"  >
<path style="stroke: none; stroke-width: 1; stroke-dasharray: none; stroke-linecap: butt; stroke-dashoffset: 0; stroke-linejoin: miter; stroke-miterlimit: 4; fill: rgb(230,230,230); fill-rule: nonzero; opacity: 1;" vector-effect="non-scaling-stroke"  transform=" translate(-590.7, -387.21)" d="M 604.389 375.62485 C 604.1600130467912 374.3894288821478 603.0853873319088 373.4910712352769 601.82894 373.48471 L 579.56894 373.48471 C 578.1333027068364 373.4854770102443 576.9697189668664 374.6491726397215 576.96909 376.08481 L 576.96909 398.34481 C 576.9676899741982 399.03477511063295 577.2411475435686 399.69688627711565 577.7290134823917 400.1847803636746 C 578.2168794212148 400.6726744502335 578.8789748097423 400.9461702189718 579.56894 400.94481 L 601.82894 400.94481 C 603.2646313279031 400.9441699393485 604.4283447215137 399.78050130222397 604.42904 398.34481 L 604.42904 376.08481 C 604.4310691297741 375.93053824875034 604.4176556393447 375.77645060994274 604.389 375.62485 Z" stroke-linecap="round" />
</g>
<g transform="matrix(1 0 0 1 530.7 515.16)"  >
<path style="stroke: none; stroke-width: 1; stroke-dasharray: none; stroke-linecap: butt; stroke-dashoffset: 0; stroke-linejoin: miter; stroke-miterlimit: 4; fill: rgb(230,230,230); fill-rule: nonzero; opacity: 1;" vector-effect="non-scaling-stroke"  transform=" translate(-590.7, -425.16)" d="M 602.839 411.63486 C 602.5187735463903 411.5023740750035 602.175550636235 411.4343819563264 601.8290000000001 411.43478 L 579.5690000000001 411.43478 C 578.8790356251825 411.43342245237847 578.2169417899701 411.7069190789961 577.7290764314525 412.19481258521597 C 577.2412110729349 412.6827060914358 576.9677526455956 413.34481570465306 576.9691500000001 414.03478 L 576.9691500000001 436.29478 C 576.9660112223896 436.98528346344995 577.2389071087324 437.6484163344285 577.7271483594973 438.1367045341761 C 578.2153896102622 438.6249927339237 578.8784962379337 438.8979523823939 579.5690000000001 438.89488 L 601.8290000000001 438.89488 C 603.2647052191454 438.894179253478 604.428399253478 437.73048521914535 604.4291000000001 436.29478 L 604.4291000000001 414.03478 C 604.4265550018297 412.9888443624922 603.8011815406447 412.0449752492497 602.839 411.63486 Z" stroke-linecap="round" />
</g>
<g transform="matrix(1 0 0 1 577.46 363.36)"  >
<path style="stroke: none; stroke-width: 1; stroke-dasharray: none; stroke-linecap: butt; stroke-dashoffset: 0; stroke-linejoin: miter; stroke-miterlimit: 4; fill: rgb(230,230,230); fill-rule: nonzero; opacity: 1;" vector-effect="non-scaling-stroke"  transform=" translate(-637.46, -273.36)" d="M 648.589 259.63486 L 626.3290000000001 259.63486 C 624.89340543118 259.6354945901987 623.7297845901987 260.79911543118 623.7291500000001 262.23471 L 623.7291500000001 284.50471 C 623.7298244351906 285.1931299371945 624.0042650397797 285.8530173406801 624.4919662489856 286.338887688951 C 624.9796674581914 286.82475803722184 625.6405823953727 287.0967147921239 626.3290000000001 287.09479999999996 L 648.589 287.09479999999996 C 650.0213040989784 287.09531573404047 651.1840909572376 285.93700543301037 651.1891 284.50471 L 651.1891 262.23471 C 651.1848379097779 260.8005241046261 650.0231862985643 259.63898418638684 648.589 259.63486 Z" stroke-linecap="round" />
</g>
<g transform="matrix(1 0 0 1 577.46 401.31)"  >
<path style="stroke: none; stroke-width: 1; stroke-dasharray: none; stroke-linecap: butt; stroke-dashoffset: 0; stroke-linejoin: miter; stroke-miterlimit: 4; fill: rgb(108,99,255); fill-rule: nonzero; opacity: 1;" vector-effect="non-scaling-stroke"  transform=" translate(-637.46, -311.31)" d="M 648.589 297.58481 L 626.3290000000001 297.58481 C 624.8933583144283 297.58547221952887 623.7297293916567 298.7491682786115 623.7291500000001 300.18481 L 623.7291500000001 322.45481 C 623.72981906463 323.1432233447381 624.0042608377403 323.803104641201 624.4919658143084 324.2889618596218 C 624.9796707908765 324.77481907804264 625.6405890751187 325.0467540588815 626.3290000000001 325.04481 L 648.589 325.04481 C 650.0212940494239 325.04538633278713 651.1841018249958 323.8870954444632 651.1891 322.45481 L 651.1891 300.18481 C 651.1849093172203 298.75057006880235 650.0232400913139 297.5889455207632 648.589 297.58481 Z" stroke-linecap="round" />
</g>
<g transform="matrix(1 0 0 1 577.46 439.26)"  >
<path style="stroke: none; stroke-width: 1; stroke-dasharray: none; stroke-linecap: butt; stroke-dashoffset: 0; stroke-linejoin: miter; stroke-miterlimit: 4; fill: rgb(108,99,255); fill-rule: nonzero; opacity: 1;" vector-effect="non-scaling-stroke"  transform=" translate(-637.46, -349.26)" d="M 648.589 335.53476 L 626.3290000000001 335.53476 C 624.8933444244057 335.53548290791866 623.7297348627831 336.69920436153143 623.7291500000001 338.13486 L 623.7291500000001 360.39486 C 623.7277631991584 361.0848072975651 624.0012298216316 361.7468953817829 624.4890972199244 362.2347627800757 C 624.9769646182172 362.7226301783685 625.639052702435 362.99609680084166 626.3290000000001 362.99471 L 648.589 362.99471 C 650.0246556384686 362.9941251372171 651.1883770920814 361.8305155755944 651.1891 360.39486 L 651.1891 338.13486 C 651.1849041282626 336.700606004175 650.023253995825 335.53895587173747 648.589 335.53476 Z" stroke-linecap="round" />
</g>
<g transform="matrix(1 0 0 1 577.46 477.21)"  >
<path style="stroke: none; stroke-width: 1; stroke-dasharray: none; stroke-linecap: butt; stroke-dashoffset: 0; stroke-linejoin: miter; stroke-miterlimit: 4; fill: rgb(108,99,255); fill-rule: nonzero; opacity: 1;" vector-effect="non-scaling-stroke"  transform=" translate(-637.46, -387.21)" d="M 648.589 373.48471 L 626.3290000000001 373.48471 C 625.210976671245 373.48555922905916 624.2194253871883 374.2030231663035 623.869 375.26471 C 623.7764981486512 375.52823241421856 623.7292020288238 375.80549404111684 623.72911 376.08477999999997 L 623.72911 398.34477999999996 C 623.7277099741981 399.0347451106329 624.0011675435685 399.6968562771156 624.4890334823916 400.18475036367454 C 624.9768994212147 400.67264445023346 625.6389948097423 400.9461402189718 626.3289599999999 400.94478 L 648.5889599999999 400.94478 C 650.024651327903 400.9441399393485 651.1883647215136 399.78047130222393 651.1890599999999 398.34477999999996 L 651.1890599999999 376.08477999999997 C 651.1848040868973 374.6505714468523 650.0232085367686 373.4889714291515 648.589 373.48471 Z" stroke-linecap="round" />
</g>
<g transform="matrix(1 0 0 1 577.46 515.16)"  >
<path style="stroke: none; stroke-width: 1; stroke-dasharray: none; stroke-linecap: butt; stroke-dashoffset: 0; stroke-linejoin: miter; stroke-miterlimit: 4; fill: rgb(230,230,230); fill-rule: nonzero; opacity: 1;" vector-effect="non-scaling-stroke"  transform=" translate(-637.46, -425.16)" d="M 648.589 411.43478 L 626.3290000000001 411.43478 C 625.6390356251825 411.43342245237847 624.97694178997 411.7069190789961 624.4890764314525 412.19481258521597 C 624.0012110729349 412.6827060914358 623.7277526455956 413.34481570465306 623.7291500000001 414.03478 L 623.7291500000001 436.29478 C 623.727752732755 436.9847534537215 624.0012079845225 437.64687327832183 624.4890704360621 438.13478264241917 C 624.9769328876018 438.62269200651644 625.6390264151142 438.8962109229996 626.3290000000001 438.89488 L 648.589 438.89488 C 650.0247052191454 438.894179253478 651.188399253478 437.73048521914535 651.1891 436.29478 L 651.1891 414.03478 C 651.1883992085758 412.5990909829422 650.024689042949 411.4354255736773 648.589 411.43478 Z" stroke-linecap="round" />
</g>
<g transform="matrix(1 0 0 1 624.22 363.36)"  >
<path style="stroke: none; stroke-width: 1; stroke-dasharray: none; stroke-linecap: butt; stroke-dashoffset: 0; stroke-linejoin: miter; stroke-miterlimit: 4; fill: rgb(108,99,255); fill-rule: nonzero; opacity: 1;" vector-effect="non-scaling-stroke"  transform=" translate(-684.22, -273.36)" d="M 695.349 259.63486 L 673.089 259.63486 C 671.65340543118 259.6354945901987 670.4897845901987 260.79911543118 670.4891500000001 262.23471 L 670.4891500000001 284.50471 C 670.4898244351906 285.1931299371945 670.7642650397797 285.8530173406801 671.2519662489856 286.338887688951 C 671.7396674581914 286.82475803722184 672.4005823953727 287.0967147921239 673.089 287.09479999999996 L 695.349 287.09479999999996 C 696.7813040989784 287.09531573404047 697.9440909572376 285.93700543301037 697.9491 284.50471 L 697.9491 262.23471 C 697.9448379097779 260.8005241046261 696.7831862985643 259.63898418638684 695.349 259.63486 Z" stroke-linecap="round" />
</g>
<g transform="matrix(1 0 0 1 624.22 401.31)"  >
<path style="stroke: none; stroke-width: 1; stroke-dasharray: none; stroke-linecap: butt; stroke-dashoffset: 0; stroke-linejoin: miter; stroke-miterlimit: 4; fill: rgb(108,99,255); fill-rule: nonzero; opacity: 1;" vector-effect="non-scaling-stroke"  transform=" translate(-684.22, -311.31)" d="M 695.349 297.58481 L 673.089 297.58481 C 671.6533583144283 297.58547221952887 670.4897293916567 298.7491682786115 670.4891500000001 300.18481 L 670.4891500000001 322.45481 C 670.48981906463 323.1432233447381 670.7642608377403 323.803104641201 671.2519658143084 324.2889618596218 C 671.7396707908765 324.77481907804264 672.4005890751187 325.0467540588815 673.089 325.04481 L 695.349 325.04481 C 696.7812940494239 325.04538633278713 697.9441018249958 323.8870954444632 697.9491 322.45481 L 697.9491 300.18481 C 697.9449093172203 298.75057006880235 696.7832400913139 297.5889455207632 695.349 297.58481 Z" stroke-linecap="round" />
</g>
<g transform="matrix(1 0 0 1 624.22 439.26)"  >
<path style="stroke: none; stroke-width: 1; stroke-dasharray: none; stroke-linecap: butt; stroke-dashoffset: 0; stroke-linejoin: miter; stroke-miterlimit: 4; fill: rgb(230,230,230); fill-rule: nonzero; opacity: 1;" vector-effect="non-scaling-stroke"  transform=" translate(-684.22, -349.26)" d="M 695.349 335.53476 L 673.089 335.53476 C 671.6533444244056 335.53548290791866 670.489734862783 336.69920436153143 670.4891500000001 338.13486 L 670.4891500000001 360.39486 C 670.4877631991584 361.0848072975651 670.7612298216316 361.7468953817829 671.2490972199244 362.2347627800757 C 671.7369646182171 362.7226301783685 672.399052702435 362.99609680084166 673.089 362.99471 L 695.349 362.99471 C 696.7846556384686 362.9941251372171 697.9483770920814 361.8305155755944 697.9491 360.39486 L 697.9491 338.13486 C 697.9449041282626 336.700606004175 696.783253995825 335.53895587173747 695.349 335.53476 Z" stroke-linecap="round" />
</g>
<g transform="matrix(1 0 0 1 624.22 477.21)"  >
<path style="stroke: none; stroke-width: 1; stroke-dasharray: none; stroke-linecap: butt; stroke-dashoffset: 0; stroke-linejoin: miter; stroke-miterlimit: 4; fill: rgb(108,99,255); fill-rule: nonzero; opacity: 1;" vector-effect="non-scaling-stroke"  transform=" translate(-684.22, -387.21)" d="M 695.349 373.48471 L 673.089 373.48471 C 671.6533627068364 373.4854770102443 670.4897789668664 374.6491726397215 670.4891500000001 376.08481 L 670.4891500000001 398.34481 C 670.4877499741982 399.03477511063295 670.7612075435686 399.69688627711565 671.2490734823917 400.1847803636746 C 671.7369394212149 400.6726744502335 672.3990348097424 400.9461702189718 673.089 400.94481 L 695.349 400.94481 C 696.7846913279031 400.9441699393485 697.9484047215137 399.78050130222397 697.9491 398.34481 L 697.9491 376.08481 C 697.9448604403858 374.65057417559 696.78323582441 373.48894955961424 695.349 373.48471 Z" stroke-linecap="round" />
</g>
<g transform="matrix(1 0 0 1 624.22 515.16)"  >
<path style="stroke: none; stroke-width: 1; stroke-dasharray: none; stroke-linecap: butt; stroke-dashoffset: 0; stroke-linejoin: miter; stroke-miterlimit: 4; fill: rgb(108,99,255); fill-rule: nonzero; opacity: 1;" vector-effect="non-scaling-stroke"  transform=" translate(-684.22, -425.16)" d="M 695.349 411.43478 L 673.089 411.43478 C 672.3990356251825 411.43342245237847 671.73694178997 411.7069190789961 671.2490764314525 412.19481258521597 C 670.7612110729349 412.6827060914358 670.4877526455956 413.34481570465306 670.4891500000001 414.03478 L 670.4891500000001 436.29478 C 670.487752732755 436.9847534537215 670.7612079845225 437.64687327832183 671.2490704360621 438.13478264241917 C 671.7369328876018 438.62269200651644 672.3990264151142 438.8962109229996 673.089 438.89488 L 695.349 438.89488 C 696.7847052191454 438.894179253478 697.948399253478 437.73048521914535 697.9491 436.29478 L 697.9491 414.03478 C 697.9483992085758 412.5990909829422 696.784689042949 411.4354255736773 695.349 411.43478 Z" stroke-linecap="round" />
</g>
<g transform="matrix(1 0 0 1 670.98 363.36)"  >
<path style="stroke: none; stroke-width: 1; stroke-dasharray: none; stroke-linecap: butt; stroke-dashoffset: 0; stroke-linejoin: miter; stroke-miterlimit: 4; fill: rgb(108,99,255); fill-rule: nonzero; opacity: 1;" vector-effect="non-scaling-stroke"  transform=" translate(-730.98, -273.36)" d="M 742.109 259.63486 L 719.849 259.63486 C 718.4133765586668 259.635483499279 717.2497063260964 260.7990865970282 717.249 262.23471 L 717.249 284.50471 C 717.249703601361 285.1931469908493 717.52417416289 285.8530401784727 718.01190149012 286.3389085142362 C 718.49962881735 286.82477684999975 719.1605653420793 287.0967254085481 719.849 287.09479999999996 L 742.109 287.09479999999996 C 743.5413040989783 287.09531573404047 744.7040909572376 285.93700543301037 744.7091 284.50471 L 744.7091 262.23471 C 744.7048379097779 260.8005241046261 743.5431862985643 259.63898418638684 742.109 259.63486 Z" stroke-linecap="round" />
</g>
<g transform="matrix(1 0 0 1 670.98 401.31)"  >
<path style="stroke: none; stroke-width: 1; stroke-dasharray: none; stroke-linecap: butt; stroke-dashoffset: 0; stroke-linejoin: miter; stroke-miterlimit: 4; fill: rgb(255,255,255); fill-rule: nonzero; opacity: 1;" vector-effect="non-scaling-stroke"  transform=" translate(-730.98, -311.31)" d="M 742.109 297.58481 L 719.849 297.58481 C 718.4133248736629 297.58545010369784 717.2496401036979 298.7491348736628 717.249 300.18481 L 717.249 322.45481 C 717.2496982314035 323.1432403987344 717.5241699618132 323.803127479102 718.0119010563158 324.28898268477957 C 718.4996321508183 324.77483789045715 719.1605720221587 325.04676467490975 719.849 325.04481 L 742.109 325.04481 C 743.5412940494239 325.04538633278713 744.7041018249957 323.8870954444632 744.7091 322.45481 L 744.7091 300.18481 C 744.7049093172203 298.75057006880235 743.5432400913139 297.5889455207632 742.109 297.58481 Z" stroke-linecap="round" />
</g>
<g transform="matrix(1 0 0 1 670.98 439.26)"  >
<path style="stroke: none; stroke-width: 1; stroke-dasharray: none; stroke-linecap: butt; stroke-dashoffset: 0; stroke-linejoin: miter; stroke-miterlimit: 4; fill: rgb(255,255,255); fill-rule: nonzero; opacity: 1;" vector-effect="non-scaling-stroke"  transform=" translate(-730.98, -349.26)" d="M 742.109 335.53476 L 719.849 335.53476 C 718.4133086977761 335.5354552784863 717.2496400606515 336.69916867209696 717.249 338.13486 L 717.249 360.39486 C 717.2476397810282 361.0848251902577 717.5211355497665 361.74692057878514 718.0090296363254 362.2347865176083 C 718.4969237228844 362.7226524564315 719.1590348893671 362.99611002580184 719.849 362.99471 L 742.109 362.99471 C 743.5446556384686 362.9941251372171 744.7083770920814 361.8305155755944 744.7091 360.39486 L 744.7091 338.13486 C 744.7049041282626 336.700606004175 743.543253995825 335.53895587173747 742.109 335.53476 Z" stroke-linecap="round" />
</g>
<g transform="matrix(1 0 0 1 670.98 477.21)"  >
<path style="stroke: none; stroke-width: 1; stroke-dasharray: none; stroke-linecap: butt; stroke-dashoffset: 0; stroke-linejoin: miter; stroke-miterlimit: 4; fill: rgb(230,230,230); fill-rule: nonzero; opacity: 1;" vector-effect="non-scaling-stroke"  transform=" translate(-730.98, -387.21)" d="M 742.109 373.48471 L 719.849 373.48471 C 718.4133269785112 373.4854493797201 717.2496841625883 374.6491369511359 717.249 376.08481 L 717.249 398.34481 C 717.2476292276889 399.0347921878259 717.5211168013266 399.6969091052044 718.0090088480611 400.1848011519389 C 718.4969008947957 400.6726931986735 719.1590178121742 400.9461807723112 719.849 400.94481 L 742.109 400.94481 C 743.5446913279031 400.9441699393485 744.7084047215137 399.78050130222397 744.7091 398.34481 L 744.7091 376.08481 C 744.7048604403858 374.65057417559 743.54323582441 373.48894955961424 742.109 373.48471 Z" stroke-linecap="round" />
</g>
<g transform="matrix(1 0 0 1 670.98 515.16)"  >
<path style="stroke: none; stroke-width: 1; stroke-dasharray: none; stroke-linecap: butt; stroke-dashoffset: 0; stroke-linejoin: miter; stroke-miterlimit: 4; fill: rgb(108,99,255); fill-rule: nonzero; opacity: 1;" vector-effect="non-scaling-stroke"  transform=" translate(-730.98, -425.16)" d="M 742.109 411.43478 L 719.849 411.43478 C 719.1590178121742 411.4334092276888 718.4969008947957 411.7068968013265 718.0090088480611 412.1947888480611 C 717.5211168013266 412.6826808947956 717.2476292276889 413.34479781217414 717.249 414.03478 L 717.249 436.29478 C 717.2476426696687 436.9847672695585 717.5211313566881 437.6468866332078 718.0090175954349 438.1347916368099 C 718.4969038341817 438.622696640412 719.1590126787479 438.89621079286877 719.849 438.89488 L 742.109 438.89488 C 743.5447052191454 438.894179253478 744.708399253478 437.73048521914535 744.7091 436.29478 L 744.7091 414.03478 C 744.7083992085758 412.5990909829422 743.544689042949 411.4354255736773 742.109 411.43478 Z" stroke-linecap="round" />
</g>
<g transform="matrix(1 0 0 1 717.74 363.36)"  >
<path style="stroke: none; stroke-width: 1; stroke-dasharray: none; stroke-linecap: butt; stroke-dashoffset: 0; stroke-linejoin: miter; stroke-miterlimit: 4; fill: rgb(255,255,255); fill-rule: nonzero; opacity: 1;" vector-effect="non-scaling-stroke"  transform=" translate(-777.74, -273.36)" d="M 788.869 259.63486 L 766.599 259.63486 C 765.1667961319187 259.639819486594 764.0085230096245 260.80249762443043 764.009 262.23471 L 764.009 284.50471 C 764.0092760231415 285.93502771556143 765.1686822948935 287.09447427556216 766.599 287.09479999999996 L 788.869 287.09479999999996 C 790.3013040989783 287.09531573404047 791.4640909572375 285.93700543301037 791.4691 284.50471 L 791.4691 262.23471 C 791.4648379097779 260.8005241046261 790.3031862985642 259.63898418638684 788.869 259.63486 Z" stroke-linecap="round" />
</g>
<g transform="matrix(1 0 0 1 717.74 401.31)"  >
<path style="stroke: none; stroke-width: 1; stroke-dasharray: none; stroke-linecap: butt; stroke-dashoffset: 0; stroke-linejoin: miter; stroke-miterlimit: 4; fill: rgb(255,255,255); fill-rule: nonzero; opacity: 1;" vector-effect="non-scaling-stroke"  transform=" translate(-777.74, -311.31)" d="M 788.869 297.58481 L 766.599 297.58481 C 765.1667375699728 297.58976965946823 764.0084403274107 298.75253909215604 764.009 300.18481 L 764.009 322.45481 C 764.0092650026724 323.8851177199801 765.16869228002 325.04454499732765 766.599 325.04481 L 788.869 325.04481 C 790.3012940494239 325.04538633278713 791.4641018249957 323.8870954444632 791.4691 322.45481 L 791.4691 300.18481 C 791.4649093172203 298.75057006880235 790.3032400913139 297.5889455207632 788.869 297.58481 Z" stroke-linecap="round" />
</g>
<g transform="matrix(1 0 0 1 717.74 439.26)"  >
<path style="stroke: none; stroke-width: 1; stroke-dasharray: none; stroke-linecap: butt; stroke-dashoffset: 0; stroke-linejoin: miter; stroke-miterlimit: 4; fill: rgb(255,255,255); fill-rule: nonzero; opacity: 1;" vector-effect="non-scaling-stroke"  transform=" translate(-777.74, -349.26)" d="M 788.869 335.53476 L 766.599 335.53476 C 765.1667328732644 335.5398020592301 764.0084676223992 336.70258409736715 764.009 338.13486 L 764.009 360.39486 C 764.0070772406652 361.083264452427 764.2790190811511 361.74417037712766 764.7648716893493 362.23187072594004 C 765.2507242975475 362.7195710747525 765.9105932085197 362.99401966054535 766.599 362.99471 L 788.869 362.99471 C 790.3046556384686 362.9941251372171 791.4683770920814 361.8305155755944 791.4691 360.39486 L 791.4691 338.13486 C 791.4649041282626 336.700606004175 790.303253995825 335.53895587173747 788.869 335.53476 Z" stroke-linecap="round" />
</g>
<g transform="matrix(1 0 0 1 717.74 477.21)"  >
<path style="stroke: none; stroke-width: 1; stroke-dasharray: none; stroke-linecap: butt; stroke-dashoffset: 0; stroke-linejoin: miter; stroke-miterlimit: 4; fill: rgb(108,99,255); fill-rule: nonzero; opacity: 1;" vector-effect="non-scaling-stroke"  transform=" translate(-777.74, -387.21)" d="M 788.869 373.48471 L 766.599 373.48471 C 765.166751189629 373.4897959382969 764.0085115724211 374.6525522428152 764.009 376.08481 L 764.009 398.34481 C 764.0070639615791 399.0332323150734 764.2789967482811 399.69416137248675 764.7648479203492 400.1818884178061 C 765.2506990924172 400.66961546312535 765.9105753358082 400.9440931540679 766.599 400.94481 L 788.869 400.94481 C 790.3046913279031 400.9441699393485 791.4684047215137 399.78050130222397 791.4691 398.34481 L 791.4691 376.08481 C 791.4648604403858 374.65057417559 790.30323582441 373.48894955961424 788.869 373.48471 Z" stroke-linecap="round" />
</g>
<g transform="matrix(1 0 0 1 717.74 515.16)"  >
<path style="stroke: none; stroke-width: 1; stroke-dasharray: none; stroke-linecap: butt; stroke-dashoffset: 0; stroke-linejoin: miter; stroke-miterlimit: 4; fill: rgb(230,230,230); fill-rule: nonzero; opacity: 1;" vector-effect="non-scaling-stroke"  transform=" translate(-777.74, -425.16)" d="M 788.869 411.43478 L 766.599 411.43478 C 765.9105761550104 411.43549950500204 765.2507014596636 411.7099780474012 764.7648508637837 412.1977045143076 C 764.2790002679039 412.685430981214 764.007066623786 413.3463584938759 764.009 414.03478 L 764.009 436.29478 C 764.0070666442344 436.98321071866735 764.2789971104821 437.6441485047168 764.7648448286642 438.13189084141374 C 765.2506925468463 438.61963317811075 765.9105669707982 438.89413396156243 766.599 438.89488 L 788.869 438.89488 C 790.3047052191454 438.894179253478 791.468399253478 437.73048521914535 791.4691 436.29478 L 791.4691 414.03478 C 791.4683992085758 412.5990909829422 790.304689042949 411.4354255736773 788.869 411.43478 Z" stroke-linecap="round" />
</g>
<g transform="matrix(1 0 0 1 764.5 363.36)"  >
<path style="stroke: none; stroke-width: 1; stroke-dasharray: none; stroke-linecap: butt; stroke-dashoffset: 0; stroke-linejoin: miter; stroke-miterlimit: 4; fill: rgb(255,255,255); fill-rule: nonzero; opacity: 1;" vector-effect="non-scaling-stroke"  transform=" translate(-824.5, -273.36)" d="M 835.629 259.63486 L 813.359 259.63486 C 811.9267961319186 259.639819486594 810.7685230096245 260.80249762443043 810.769 262.23471 L 810.769 284.50471 C 810.7692760231415 285.93502771556143 811.9286822948935 287.09447427556216 813.359 287.09479999999996 L 835.629 287.09479999999996 C 837.0612836843017 287.0952662898955 838.2240415922051 285.9369848277665 838.2291 284.50471 L 838.2291 262.23471 C 838.224794222479 260.80054227821927 837.0631681291718 259.639027875433 835.629 259.63486 Z" stroke-linecap="round" />
</g>
<g transform="matrix(1 0 0 1 764.5 401.31)"  >
<path style="stroke: none; stroke-width: 1; stroke-dasharray: none; stroke-linecap: butt; stroke-dashoffset: 0; stroke-linejoin: miter; stroke-miterlimit: 4; fill: rgb(255,255,255); fill-rule: nonzero; opacity: 1;" vector-effect="non-scaling-stroke"  transform=" translate(-824.5, -311.31)" d="M 835.629 297.58481 L 813.359 297.58481 C 811.9267375699728 297.58976965946823 810.7684403274106 298.75253909215604 810.769 300.18481 L 810.769 322.45481 C 810.7692650026723 323.8851177199801 811.92869228002 325.04454499732765 813.359 325.04481 L 835.629 325.04481 C 837.0612736343784 325.0453368835657 838.2240524556044 323.88707483711545 838.2291 322.45481 L 838.2291 300.18481 C 838.2248601648128 298.7505905136251 837.0632196483816 297.588994673957 835.629 297.58481 Z" stroke-linecap="round" />
</g>
<g transform="matrix(1 0 0 1 764.5 439.26)"  >
<path style="stroke: none; stroke-width: 1; stroke-dasharray: none; stroke-linecap: butt; stroke-dashoffset: 0; stroke-linejoin: miter; stroke-miterlimit: 4; fill: rgb(108,99,255); fill-rule: nonzero; opacity: 1;" vector-effect="non-scaling-stroke"  transform=" translate(-824.5, -349.26)" d="M 835.629 335.53476 L 813.359 335.53476 C 811.9267328732644 335.5398020592301 810.7684676223992 336.70258409736715 810.769 338.13486 L 810.769 360.39486 C 810.7670772406652 361.083264452427 811.0390190811511 361.74417037712766 811.5248716893493 362.23187072594004 C 812.0107242975475 362.7195710747525 812.6705932085197 362.99401966054535 813.359 362.99471 L 835.629 362.99471 C 837.0646373602785 362.9940810331337 838.2283329897557 361.8304972931636 838.2291 360.39486 L 838.2291 338.13486 C 838.2248604403858 336.70062417559 837.06323582441 335.53899955961424 835.629 335.53476 Z" stroke-linecap="round" />
</g>
<g transform="matrix(1 0 0 1 764.5 477.21)"  >
<path style="stroke: none; stroke-width: 1; stroke-dasharray: none; stroke-linecap: butt; stroke-dashoffset: 0; stroke-linejoin: miter; stroke-miterlimit: 4; fill: rgb(230,230,230); fill-rule: nonzero; opacity: 1;" vector-effect="non-scaling-stroke"  transform=" translate(-824.5, -387.21)" d="M 835.629 373.48471 L 813.359 373.48471 C 811.926751189629 373.4897959382969 810.7685115724211 374.6525522428152 810.769 376.08481 L 810.769 398.34481 C 810.7670639615791 399.0332323150734 811.0389967482811 399.69416137248675 811.5248479203492 400.1818884178061 C 812.0106990924172 400.66961546312535 812.6705753358082 400.9440931540679 813.359 400.94481 L 835.629 400.94481 C 837.0646730488642 400.9441258374117 838.2283606202799 399.7804830214888 838.2291 398.34481 L 838.2291 376.08481 C 838.2248112976276 374.6505946168273 837.0632153831727 373.4889987023723 835.629 373.48471 Z" stroke-linecap="round" />
</g>
<g transform="matrix(1 0 0 1 764.5 515.16)"  >
<path style="stroke: none; stroke-width: 1; stroke-dasharray: none; stroke-linecap: butt; stroke-dashoffset: 0; stroke-linejoin: miter; stroke-miterlimit: 4; fill: rgb(255,255,255); fill-rule: nonzero; opacity: 1;" vector-effect="non-scaling-stroke"  transform=" translate(-824.5, -425.16)" d="M 835.629 411.43478 L 813.359 411.43478 C 812.6705761550104 411.43549950500204 812.0107014596636 411.7099780474012 811.5248508637837 412.1977045143076 C 811.0390002679039 412.685430981214 810.767066623786 413.3463584938759 810.769 414.03478 L 810.769 436.29478 C 810.7670666442344 436.98321071866735 811.0389971104821 437.6441485047168 811.5248448286642 438.13189084141374 C 812.0106925468463 438.61963317811075 812.6705669707982 438.89413396156243 813.359 438.89488 L 835.629 438.89488 C 837.064684655512 438.89412964393483 838.2283496439348 437.730464655512 838.2291 436.29478 L 838.2291 414.03478 C 838.2283551079905 412.59910926350767 837.0646707640797 411.4354696749656 835.629 411.43478 Z" stroke-linecap="round" />
</g>
<g transform="matrix(1 0 0 1 811.26 363.36)"  >
<path style="stroke: none; stroke-width: 1; stroke-dasharray: none; stroke-linecap: butt; stroke-dashoffset: 0; stroke-linejoin: miter; stroke-miterlimit: 4; fill: rgb(108,99,255); fill-rule: nonzero; opacity: 1;" vector-effect="non-scaling-stroke"  transform=" translate(-871.26, -273.36)" d="M 882.389 259.63486 L 860.119 259.63486 C 858.6867961319186 259.639819486594 857.5285230096245 260.80249762443043 857.529 262.23471 L 857.529 284.50471 C 857.5292760231415 285.93502771556143 858.6886822948935 287.09447427556216 860.119 287.09479999999996 L 882.389 287.09479999999996 C 883.8212836843016 287.0952662898955 884.9840415922051 285.9369848277665 884.9891 284.50471 L 884.9891 262.23471 C 884.984794222479 260.80054227821927 883.8231681291718 259.639027875433 882.389 259.63486 Z" stroke-linecap="round" />
</g>
<g transform="matrix(1 0 0 1 811.26 401.31)"  >
<path style="stroke: none; stroke-width: 1; stroke-dasharray: none; stroke-linecap: butt; stroke-dashoffset: 0; stroke-linejoin: miter; stroke-miterlimit: 4; fill: rgb(108,99,255); fill-rule: nonzero; opacity: 1;" vector-effect="non-scaling-stroke"  transform=" translate(-871.26, -311.31)" d="M 882.389 297.58481 L 860.119 297.58481 C 858.6867375699728 297.58976965946823 857.5284403274106 298.75253909215604 857.529 300.18481 L 857.529 322.45481 C 857.5292650026723 323.8851177199801 858.68869228002 325.04454499732765 860.119 325.04481 L 882.389 325.04481 C 883.8212736343784 325.0453368835657 884.9840524556043 323.88707483711545 884.9891 322.45481 L 884.9891 300.18481 C 884.9848601648127 298.7505905136251 883.8232196483816 297.588994673957 882.389 297.58481 Z" stroke-linecap="round" />
</g>
<g transform="matrix(1 0 0 1 811.26 439.26)"  >
<path style="stroke: none; stroke-width: 1; stroke-dasharray: none; stroke-linecap: butt; stroke-dashoffset: 0; stroke-linejoin: miter; stroke-miterlimit: 4; fill: rgb(230,230,230); fill-rule: nonzero; opacity: 1;" vector-effect="non-scaling-stroke"  transform=" translate(-871.26, -349.26)" d="M 882.389 335.53476 L 860.119 335.53476 C 858.6867328732644 335.5398020592301 857.5284676223991 336.70258409736715 857.529 338.13486 L 857.529 360.39486 C 857.5270772406652 361.083264452427 857.7990190811511 361.74417037712766 858.2848716893493 362.23187072594004 C 858.7707242975475 362.7195710747525 859.4305932085197 362.99401966054535 860.119 362.99471 L 882.389 362.99471 C 883.8246373602785 362.9940810331337 884.9883329897557 361.8304972931636 884.9891 360.39486 L 884.9891 338.13486 C 884.9848604403858 336.70062417559 883.82323582441 335.53899955961424 882.389 335.53476 Z" stroke-linecap="round" />
</g>
<g transform="matrix(1 0 0 1 811.26 477.21)"  >
<path style="stroke: none; stroke-width: 1; stroke-dasharray: none; stroke-linecap: butt; stroke-dashoffset: 0; stroke-linejoin: miter; stroke-miterlimit: 4; fill: rgb(255,255,255); fill-rule: nonzero; opacity: 1;" vector-effect="non-scaling-stroke"  transform=" translate(-871.26, -387.21)" d="M 882.389 373.48471 L 860.119 373.48471 C 858.686751189629 373.4897959382969 857.528511572421 374.6525522428152 857.529 376.08481 L 857.529 398.34481 C 857.5270639615791 399.0332323150734 857.7989967482811 399.69416137248675 858.2848479203492 400.1818884178061 C 858.7706990924172 400.66961546312535 859.4305753358082 400.9440931540679 860.119 400.94481 L 882.389 400.94481 C 883.8246730488642 400.9441258374117 884.9883606202799 399.7804830214888 884.9891 398.34481 L 884.9891 376.08481 C 884.9848112976276 374.6505946168273 883.8232153831727 373.4889987023723 882.389 373.48471 Z" stroke-linecap="round" />
</g>
<g transform="matrix(1 0 0 1 811.26 515.16)"  >
<path style="stroke: none; stroke-width: 1; stroke-dasharray: none; stroke-linecap: butt; stroke-dashoffset: 0; stroke-linejoin: miter; stroke-miterlimit: 4; fill: rgb(108,99,255); fill-rule: nonzero; opacity: 1;" vector-effect="non-scaling-stroke"  transform=" translate(-871.26, -425.16)" d="M 882.389 411.43478 L 860.119 411.43478 C 859.4305761550104 411.43549950500204 858.7707014596635 411.7099780474012 858.2848508637837 412.1977045143076 C 857.7990002679039 412.685430981214 857.527066623786 413.3463584938759 857.529 414.03478 L 857.529 436.29478 C 857.5270666442344 436.98321071866735 857.7989971104821 437.6441485047168 858.2848448286642 438.13189084141374 C 858.7706925468462 438.61963317811075 859.4305669707982 438.89413396156243 860.119 438.89488 L 882.389 438.89488 C 883.824684655512 438.89412964393483 884.9883496439348 437.730464655512 884.9891 436.29478 L 884.9891 414.03478 C 884.9883551079905 412.59910926350767 883.8246707640797 411.4354696749656 882.389 411.43478 Z" stroke-linecap="round" />
</g>
<g transform="matrix(1 0 0 1 858.02 363.36)"  >
<path style="stroke: none; stroke-width: 1; stroke-dasharray: none; stroke-linecap: butt; stroke-dashoffset: 0; stroke-linejoin: miter; stroke-miterlimit: 4; fill: rgb(108,99,255); fill-rule: nonzero; opacity: 1;" vector-effect="non-scaling-stroke"  transform=" translate(-918.02, -273.36)" d="M 929.149 259.63486 L 906.879 259.63486 C 905.4467961319186 259.639819486594 904.2885230096244 260.80249762443043 904.289 262.23471 L 904.289 284.50471 C 904.2892760231415 285.93502771556143 905.4486822948935 287.09447427556216 906.879 287.09479999999996 L 929.149 287.09479999999996 C 930.581269614394 287.0952716031269 931.74400204516 285.9369709717413 931.749 284.50471 L 931.749 262.23471 C 931.7447491064797 260.8005584534867 930.5831517893774 259.63902815161424 929.149 259.63486 Z" stroke-linecap="round" />
</g>
<g transform="matrix(1 0 0 1 858.02 401.31)"  >
<path style="stroke: none; stroke-width: 1; stroke-dasharray: none; stroke-linecap: butt; stroke-dashoffset: 0; stroke-linejoin: miter; stroke-miterlimit: 4; fill: rgb(108,99,255); fill-rule: nonzero; opacity: 1;" vector-effect="non-scaling-stroke"  transform=" translate(-918.02, -311.31)" d="M 929.149 297.58481 L 906.879 297.58481 C 905.4467375699728 297.58976965946823 904.2884403274106 298.75253909215604 904.289 300.18481 L 904.289 322.45481 C 904.2892650026723 323.8851177199801 905.4486922800199 325.04454499732765 906.879 325.04481 L 929.149 325.04481 C 930.5812572967412 325.0453367050171 931.7440074256554 323.8870586919833 931.749 322.45481 L 931.749 300.18481 C 931.7448205134273 298.75060441778857 930.5832055822115 297.58898948657276 929.149 297.58481 Z" stroke-linecap="round" />
</g>
<g transform="matrix(1 0 0 1 858.02 439.26)"  >
<path style="stroke: none; stroke-width: 1; stroke-dasharray: none; stroke-linecap: butt; stroke-dashoffset: 0; stroke-linejoin: miter; stroke-miterlimit: 4; fill: rgb(230,230,230); fill-rule: nonzero; opacity: 1;" vector-effect="non-scaling-stroke"  transform=" translate(-918.02, -349.26)" d="M 929.149 335.53476 L 906.879 335.53476 C 905.4467328732644 335.5398020592301 904.2884676223991 336.70258409736715 904.289 338.13486 L 904.289 360.39486 C 904.2870772406652 361.083264452427 904.5590190811511 361.74417037712766 905.0448716893493 362.23187072594004 C 905.5307242975475 362.7195710747525 906.1905932085197 362.99401966054535 906.879 362.99471 L 929.149 362.99471 C 930.5846211564218 362.9940809876331 931.7482881609475 361.83048111774224 931.749 360.39486 L 931.749 338.13486 C 931.744815326043 336.7006403516184 930.5832194863749 335.53899983518727 929.149 335.53476 Z" stroke-linecap="round" />
</g>
<g transform="matrix(1 0 0 1 858.02 477.21)"  >
<path style="stroke: none; stroke-width: 1; stroke-dasharray: none; stroke-linecap: butt; stroke-dashoffset: 0; stroke-linejoin: miter; stroke-miterlimit: 4; fill: rgb(108,99,255); fill-rule: nonzero; opacity: 1;" vector-effect="non-scaling-stroke"  transform=" translate(-918.02, -387.21)" d="M 929.149 373.48471 L 906.879 373.48471 C 905.446751189629 373.4897959382969 904.288511572421 374.6525522428152 904.289 376.08481 L 904.289 398.34481 C 904.2870639615791 399.0332323150734 904.5589967482811 399.69416137248675 905.0448479203492 400.1818884178061 C 905.5306990924172 400.66961546312535 906.1905753358081 400.9440931540679 906.879 400.94481 L 929.149 400.94481 C 930.5846568456026 400.94412579147547 931.7483157914754 399.78046684560263 931.749 398.34481 L 931.749 376.08481 C 931.7447716397411 374.65060852168745 930.5832013146257 373.4889935207903 929.149 373.48471 Z" stroke-linecap="round" />
</g>
<g transform="matrix(1 0 0 1 858.02 515.16)"  >
<path style="stroke: none; stroke-width: 1; stroke-dasharray: none; stroke-linecap: butt; stroke-dashoffset: 0; stroke-linejoin: miter; stroke-miterlimit: 4; fill: rgb(108,99,255); fill-rule: nonzero; opacity: 1;" vector-effect="non-scaling-stroke"  transform=" translate(-918.02, -425.16)" d="M 929.149 411.43478 L 906.879 411.43478 C 906.1905761550104 411.43549950500204 905.5307014596635 411.7099780474012 905.0448508637837 412.1977045143076 C 904.5590002679039 412.685430981214 904.287066623786 413.3463584938759 904.289 414.03478 L 904.289 436.29478 C 904.2870666442344 436.98321071866735 904.5589971104821 437.6441485047168 905.0448448286642 438.13189084141374 C 905.5306925468462 438.61963317811075 906.1905669707982 438.89413396156243 906.879 438.89488 L 929.149 438.89488 C 930.5846707364923 438.89413510799045 931.7483103250344 437.73045076407965 931.749 436.29478 L 931.749 414.03478 C 931.748310278737 412.59912543939384 930.5846545606062 411.4354697212631 929.149 411.43478 Z" stroke-linecap="round" />
</g>
<g transform="matrix(1 0 0 1 904.78 363.36)"  >
<path style="stroke: none; stroke-width: 1; stroke-dasharray: none; stroke-linecap: butt; stroke-dashoffset: 0; stroke-linejoin: miter; stroke-miterlimit: 4; fill: rgb(230,230,230); fill-rule: nonzero; opacity: 1;" vector-effect="non-scaling-stroke"  transform=" translate(-964.78, -273.36)" d="M 975.909 259.63486 L 953.639 259.63486 C 952.2067961319186 259.639819486594 951.0485230096244 260.80249762443043 951.049 262.23471 L 951.049 284.50471 C 951.0492760231415 285.93502771556143 952.2086822948935 287.09447427556216 953.639 287.09479999999996 L 975.909 287.09479999999996 C 977.341269614394 287.0952716031269 978.50400204516 285.9369709717413 978.509 284.50471 L 978.509 262.23471 C 978.5047491064797 260.8005584534867 977.3431517893774 259.63902815161424 975.909 259.63486 Z" stroke-linecap="round" />
</g>
<g transform="matrix(1 0 0 1 904.78 401.31)"  >
<path style="stroke: none; stroke-width: 1; stroke-dasharray: none; stroke-linecap: butt; stroke-dashoffset: 0; stroke-linejoin: miter; stroke-miterlimit: 4; fill: rgb(108,99,255); fill-rule: nonzero; opacity: 1;" vector-effect="non-scaling-stroke"  transform=" translate(-964.78, -311.31)" d="M 975.909 297.58481 L 953.639 297.58481 C 952.2067375699728 297.58976965946823 951.0484403274106 298.75253909215604 951.049 300.18481 L 951.049 322.45481 C 951.0492650026723 323.8851177199801 952.2086922800199 325.04454499732765 953.639 325.04481 L 975.909 325.04481 C 977.3412572967412 325.0453367050171 978.5040074256553 323.8870586919833 978.509 322.45481 L 978.509 300.18481 C 978.5048205134273 298.75060441778857 977.3432055822115 297.58898948657276 975.909 297.58481 Z" stroke-linecap="round" />
</g>
<g transform="matrix(1 0 0 1 904.78 439.26)"  >
<path style="stroke: none; stroke-width: 1; stroke-dasharray: none; stroke-linecap: butt; stroke-dashoffset: 0; stroke-linejoin: miter; stroke-miterlimit: 4; fill: rgb(108,99,255); fill-rule: nonzero; opacity: 1;" vector-effect="non-scaling-stroke"  transform=" translate(-964.78, -349.26)" d="M 975.909 335.53476 L 953.639 335.53476 C 952.2067328732644 335.5398020592301 951.0484676223991 336.70258409736715 951.049 338.13486 L 951.049 360.39486 C 951.0470772406652 361.083264452427 951.319019081151 361.74417037712766 951.8048716893493 362.23187072594004 C 952.2907242975475 362.7195710747525 952.9505932085196 362.99401966054535 953.639 362.99471 L 975.909 362.99471 C 977.3446211564218 362.9940809876331 978.5082881609475 361.83048111774224 978.509 360.39486 L 978.509 338.13486 C 978.504815326043 336.7006403516184 977.3432194863749 335.53899983518727 975.909 335.53476 Z" stroke-linecap="round" />
</g>
<g transform="matrix(1 0 0 1 904.78 477.21)"  >
<path style="stroke: none; stroke-width: 1; stroke-dasharray: none; stroke-linecap: butt; stroke-dashoffset: 0; stroke-linejoin: miter; stroke-miterlimit: 4; fill: rgb(108,99,255); fill-rule: nonzero; opacity: 1;" vector-effect="non-scaling-stroke"  transform=" translate(-964.78, -387.21)" d="M 975.909 373.48471 L 953.639 373.48471 C 952.206751189629 373.4897959382969 951.048511572421 374.6525522428152 951.049 376.08481 L 951.049 398.34481 C 951.047063961579 399.0332323150734 951.318996748281 399.69416137248675 951.8048479203492 400.1818884178061 C 952.2906990924172 400.66961546312535 952.9505753358081 400.9440931540679 953.639 400.94481 L 975.909 400.94481 C 977.3446568456026 400.94412579147547 978.5083157914754 399.78046684560263 978.509 398.34481 L 978.509 376.08481 C 978.5047716397411 374.65060852168745 977.3432013146257 373.4889935207903 975.909 373.48471 Z" stroke-linecap="round" />
</g>
<g transform="matrix(1 0 0 1 904.78 515.16)"  >
<path style="stroke: none; stroke-width: 1; stroke-dasharray: none; stroke-linecap: butt; stroke-dashoffset: 0; stroke-linejoin: miter; stroke-miterlimit: 4; fill: rgb(230,230,230); fill-rule: nonzero; opacity: 1;" vector-effect="non-scaling-stroke"  transform=" translate(-964.78, -425.16)" d="M 975.909 411.43478 L 953.639 411.43478 C 952.9505761550104 411.43549950500204 952.2907014596635 411.7099780474012 951.8048508637837 412.1977045143076 C 951.3190002679039 412.685430981214 951.047066623786 413.3463584938759 951.049 414.03478 L 951.049 436.29478 C 951.0470666442344 436.98321071866735 951.3189971104821 437.6441485047168 951.8048448286642 438.13189084141374 C 952.2906925468462 438.61963317811075 952.9505669707981 438.89413396156243 953.639 438.89488 L 975.909 438.89488 C 977.3446707364923 438.89413510799045 978.5083103250344 437.73045076407965 978.509 436.29478 L 978.509 414.03478 C 978.508310278737 412.59912543939384 977.3446545606062 411.4354697212631 975.909 411.43478 Z" stroke-linecap="round" />
</g>
<g transform="matrix(1 0 0 1 951.54 363.36)"  >
<path style="stroke: none; stroke-width: 1; stroke-dasharray: none; stroke-linecap: butt; stroke-dashoffset: 0; stroke-linejoin: miter; stroke-miterlimit: 4; fill: rgb(230,230,230); fill-rule: nonzero; opacity: 1;" vector-effect="non-scaling-stroke"  transform=" translate(-1011.54, -273.36)" d="M 1022.669 259.63486 L 1000.399 259.63486 C 998.9667907181926 259.6398413210897 997.8085045903821 260.80249211291084 997.80891 262.23471 L 997.80891 284.50471 C 997.8092467418952 285.93503770140893 998.9686722985911 287.0944632581048 1000.399 287.09479999999996 L 1022.669 287.09479999999996 C 1024.101269614394 287.0952716031269 1025.26400204516 285.9369709717413 1025.269 284.50471 L 1025.269 262.23471 C 1025.2647491064797 260.8005584534867 1024.1031517893773 259.63902815161424 1022.669 259.63486 Z" stroke-linecap="round" />
</g>
<g transform="matrix(1 0 0 1 951.54 401.31)"  >
<path style="stroke: none; stroke-width: 1; stroke-dasharray: none; stroke-linecap: butt; stroke-dashoffset: 0; stroke-linejoin: miter; stroke-miterlimit: 4; fill: rgb(230,230,230); fill-rule: nonzero; opacity: 1;" vector-effect="non-scaling-stroke"  transform=" translate(-1011.54, -311.31)" d="M 1022.669 297.58481 L 1000.399 297.58481 C 998.9667390282586 297.58980795484 997.808438396873 298.752540385606 997.80891 300.18481 L 997.80891 322.45481 C 997.8092357244378 323.8851277051066 998.9686822844386 325.0445339768585 1000.399 325.04481 L 1022.669 325.04481 C 1024.101257296741 325.0453367050171 1025.2640074256553 323.8870586919833 1025.269 322.45481 L 1025.269 300.18481 C 1025.2648205134274 298.75060441778857 1024.1032055822113 297.58898948657276 1022.669 297.58481 Z" stroke-linecap="round" />
</g>
<g transform="matrix(1 0 0 1 951.54 439.26)"  >
<path style="stroke: none; stroke-width: 1; stroke-dasharray: none; stroke-linecap: butt; stroke-dashoffset: 0; stroke-linejoin: miter; stroke-miterlimit: 4; fill: rgb(108,99,255); fill-rule: nonzero; opacity: 1;" vector-effect="non-scaling-stroke"  transform=" translate(-1011.54, -349.26)" d="M 1022.669 335.53476 L 1000.399 335.53476 C 998.9667228828471 335.5398129231137 997.8084382166332 336.70257404748486 997.80891 338.13486 L 997.80891 360.39486 C 997.8070165053754 361.08327113203177 998.078980119079 361.74417371079295 998.5648458575902 362.23187029286856 C 999.0507115961013 362.7195668749442 999.7105866154575 362.994014291805 1000.399 362.99471 L 1022.669 362.99471 C 1024.1046211564217 362.9940809876331 1025.2682881609476 361.83048111774224 1025.269 360.39486 L 1025.269 338.13486 C 1025.264815326043 336.7006403516184 1024.1032194863749 335.53899983518727 1022.669 335.53476 Z" stroke-linecap="round" />
</g>
<g transform="matrix(1 0 0 1 951.54 477.21)"  >
<path style="stroke: none; stroke-width: 1; stroke-dasharray: none; stroke-linecap: butt; stroke-dashoffset: 0; stroke-linejoin: miter; stroke-miterlimit: 4; fill: rgb(230,230,230); fill-rule: nonzero; opacity: 1;" vector-effect="non-scaling-stroke"  transform=" translate(-1011.54, -387.21)" d="M 1022.669 373.48471 L 1000.399 373.48471 C 998.9667411973419 373.48980679830663 997.8084821621436 374.6525421926052 997.80891 376.08481 L 997.80891 398.34481 C 997.8070032261493 399.0332389950292 998.0789577862074 399.6941647068127 998.5648220887663 400.1818879854066 C 999.0506863913253 400.66961126400054 999.7105687431632 400.9440877857029 1000.399 400.94481 L 1022.669 400.94481 C 1024.1046568456027 400.94412579147547 1025.2683157914755 399.78046684560263 1025.269 398.34481 L 1025.269 376.08481 C 1025.2647716397412 374.65060852168745 1024.1032013146257 373.4889935207903 1022.669 373.48471 Z" stroke-linecap="round" />
</g>
<g transform="matrix(1 0 0 1 951.54 515.16)"  >
<path style="stroke: none; stroke-width: 1; stroke-dasharray: none; stroke-linecap: butt; stroke-dashoffset: 0; stroke-linejoin: miter; stroke-miterlimit: 4; fill: rgb(230,230,230); fill-rule: nonzero; opacity: 1;" vector-effect="non-scaling-stroke"  transform=" translate(-1011.54, -425.16)" d="M 1022.669 411.43478 L 1000.399 411.43478 C 999.7105695622896 411.4355048731395 999.0506887583257 411.7099822462472 998.5648250318972 412.19770494650635 C 998.0789613054686 412.6854276467655 997.8070058881004 413.34635181393776 997.80891 414.03478 L 997.80891 436.29478 C 997.8070059076028 436.98321739878065 998.0789581468408 437.6441518400138 998.564818995883 438.13189041033166 C 999.0506798449252 438.61962898064957 999.7105603781032 438.8941285944333 1000.399 438.89488 L 1022.669 438.89488 C 1024.1046707364924 438.89413510799045 1025.2683103250345 437.73045076407965 1025.269 436.29478 L 1025.269 414.03478 C 1025.2683102787369 412.59912543939384 1024.1046545606061 411.4354697212631 1022.669 411.43478 Z" stroke-linecap="round" />
</g>
<g transform="matrix(1 0 0 1 450.52 829.6)"  >
<polygon style="stroke: none; stroke-width: 1; stroke-dasharray: none; stroke-linecap: butt; stroke-dashoffset: 0; stroke-linejoin: miter; stroke-miterlimit: 4; fill: rgb(47,46,65); fill-rule: nonzero; opacity: 1;" vector-effect="non-scaling-stroke"  points="0.31,0.03 -0.31,0.03 0.22,-0.04 0.31,0.03 " />
</g>
<g transform="matrix(1 0 0 1 397.55 346.32)" id="b6132315-04e2-4cdb-a713-107c9cd58b0b"  >
<circle style="stroke: none; stroke-width: 1; stroke-dasharray: none; stroke-linecap: butt; stroke-dashoffset: 0; stroke-linejoin: miter; stroke-miterlimit: 4; fill: rgb(255,182,182); fill-rule: nonzero; opacity: 1;" vector-effect="non-scaling-stroke"  cx="0" cy="0" r="68.32185" />
</g>
<g transform="matrix(1 0 0 1 397.25 308.75)" id="f4304bdd-ba2d-4fff-b404-410205410c5d-751"  >
<path style="stroke: none; stroke-width: 1; stroke-dasharray: none; stroke-linecap: butt; stroke-dashoffset: 0; stroke-linejoin: miter; stroke-miterlimit: 4; fill: rgb(158,43,2); fill-rule: nonzero; opacity: 1;" vector-effect="non-scaling-stroke"  transform=" translate(-457.25, -218.75)" d="M 517.37694 206.2256 C 517.37694 206.2256 535.24634 172.06468999999998 495.93311 168.95910999999998 C 495.93311 168.95910999999998 462.41822 138.55683 428.25731 163.40111 C 428.25731 163.40111 409.62409 163.40111 399.43477 184.48677999999998 C 399.43477 184.48677999999998 384.77977000000004 178.92878 381.55926 193.80338999999998 C 381.55926 193.80338999999998 370.83576999999997 224.85885 381.55926 252.80872 C 392.28274 280.75864 395.84463 283.86409 395.84463 283.86409 C 395.84463 283.86409 378.22373 225.26570999999998 421.11454 222.16008999999997 C 464.00534999999996 219.05446999999995 512.0012399999999 192.25066999999996 515.5756799999999 226.41152999999997 C 519.1501199999999 260.57239 524.52897 268.98936999999995 524.52897 268.98936999999995 C 524.52897 268.98936999999995 558.47855 220.2006 517.37694 206.2256 Z" stroke-linecap="round" />
</g>
<g transform="matrix(1 0 0 1 426.15 634.32)"  >
<path style="stroke: none; stroke-width: 1; stroke-dasharray: none; stroke-linecap: butt; stroke-dashoffset: 0; stroke-linejoin: miter; stroke-miterlimit: 4; fill: rgb(202,202,202); fill-rule: nonzero; opacity: 1;" vector-effect="non-scaling-stroke"  transform=" translate(-486.15, -544.32)" d="M 634.279 424.69479 L 634.0589 425.85479000000004 L 631.5889 438.89479000000006 L 614.51896 529.0947900000001 L 613.50896 534.4048500000001 L 611.38896 545.6348500000001 L 608.48906 560.9547900000001 L 602.05888 594.9048700000001 L 600.2190400000001 604.6348700000001 L 599.52898 608.2847700000001 L 599.28898 609.5647700000001 L 597.3789800000001 619.63484 L 596.79898 622.67475 L 592.1389800000001 657.20475 L 588.0689100000001 687.29475 L 601.6890300000001 700.91475 L 593.5689100000001 709.03475 L 588.2390800000001 739.56475 L 588.2489700000001 739.63482 L 370.71908 739.63482 Q 357.519 731.0847 344.69908000000004 722.00469 L 346.48908000000006 708.60479 C 346.48908000000006 708.60479 352.6489900000001 684.67473 350.05890000000005 681.81479 C 347.47907000000004 678.95479 341.81890000000004 673.84479 341.81890000000004 673.84479 L 348.94903000000005 657.20479 L 349.93903000000006 654.89486 L 348.27903000000003 620.4648 L 348.23911000000004 619.6347999999999 L 347.68911 608.2846999999999 L 347.61904000000004 606.8246999999999 L 347.50904 604.6347599999999 L 345.39904 560.9546999999999 L 345.35904 560.2346099999999 L 344.71915 546.9946099999999 L 344.11905 534.4047699999999 L 343.85905 529.0947099999998 L 341.28911000000005 475.96470999999985 L 339.54911000000004 439.88475999999986 L 338.02911000000006 408.47475999999983 L 344.1391100000001 406.40481999999986 L 409.48921000000007 384.1947299999999 L 436.55903000000006 349.00466999999986 L 492.89912000000004 349.4246699999999 L 520.4792 349.63475999999986 L 566.4991 392.31468999999987 L 576.96919 397.31468999999987 L 577.0491900000001 397.3546899999999 L 584.55907 400.94468999999987 L 603.59907 410.03468999999984 L 623.7292 419.6548099999998 L 634.05903 424.58473999999984 Z" stroke-linecap="round" />
</g>
<g transform="matrix(1 0 0 1 320.05 688.43)"  >
<path style="stroke: none; stroke-width: 1; stroke-dasharray: none; stroke-linecap: butt; stroke-dashoffset: 0; stroke-linejoin: miter; stroke-miterlimit: 4; fill: rgb(255,182,182); fill-rule: nonzero; opacity: 1;" vector-effect="non-scaling-stroke"  transform=" translate(-380.05, -598.43)" d="M 443.83985 637.13612 C 435.4821636671352 640.3739518550461 426.11958034074104 639.7435413677053 418.2713926659433 635.4145199793012 C 410.4232049911456 631.0854985908971 404.89560337105826 623.5025569284662 403.17596000000003 614.70612 L 296.61714 599.5882 L 333.65994 557.6862 L 429.17094 578.4665 C 444.47593350036703 576.5140733271642 458.8223709711937 586.3175353605325 462.5648192431389 601.2857976808853 C 466.3072675150841 616.2540600012381 458.26278132544684 631.6558254159161 443.83984999999996 637.13614 Z" stroke-linecap="round" />
</g>
<g transform="matrix(1 0 0 1 256.76 596.95)"  >
<path style="stroke: none; stroke-width: 1; stroke-dasharray: none; stroke-linecap: butt; stroke-dashoffset: 0; stroke-linejoin: miter; stroke-miterlimit: 4; fill: rgb(202,202,202); fill-rule: nonzero; opacity: 1;" vector-effect="non-scaling-stroke"  transform=" translate(-316.76, -506.95)" d="M 396.32894 560.9548 C 394.3550778354306 558.4523860321898 391.56075078340837 556.7275999143417 388.43905 556.0848 L 344.71905000000004 546.9947099999999 L 340.22905000000003 546.0647799999999 C 334.9514602044773 544.9633698642265 330.39374345352394 541.6642068118207 327.69896000000006 536.9947099999999 C 326.31689248903274 534.571182691227 325.4807470468613 531.8750743734269 325.24896000000007 529.0948099999999 C 325.0405687210299 526.5670135693368 325.3432495276162 524.0231344308361 326.13896000000005 521.6148099999999 L 341.28896000000003 475.96480999999994 L 351.11891 446.34480999999994 C 352.3102658309745 442.772464617121 353.0133262471899 439.0554870710916 353.209 435.2948099999999 C 353.7566714256616 424.8876532293593 350.5367283962736 414.63152511510157 344.13893 406.40491999999995 C 332.5905137100331 391.5586732513883 312.68665179233244 386.019161659915 295.12893 392.76478 C 294.87893 392.85486999999995 294.61893000000003 392.95484 294.36893000000003 393.05478 C 281.9352976347176 398.0194916240636 272.5604426640943 408.54259038800706 269.05893000000003 421.46478 L 258.37893 460.31478000000004 L 236.34893000000002 540.4048700000001 C 231.88623307182147 556.6430349695878 234.7316379718309 574.0201660377301 244.14022714392684 587.9869879827196 C 253.54881631602274 601.9538099277091 268.58374909676184 611.1196055550972 285.30893000000003 613.0848000000001 L 348.27893000000006 620.4648000000001 L 377.41893000000005 623.8848 C 384.40662434634294 624.7244894360522 390.8665609566797 620.0536592589017 392.25893 613.1548 C 392.30607968985015 612.9737031454682 392.34280663277195 612.7900517367942 392.36893000000003 612.60475 L 393.06893 608.28468 L 398.99899000000005 571.9048 L 399.05892000000006 571.53468 C 399.68373223165713 567.780777351359 398.6920848075499 563.9377049664465 396.32894 560.9548 Z" stroke-linecap="round" />
</g>
<g transform="matrix(1 0 0 1 510.06 681.6)"  >
<path style="stroke: none; stroke-width: 1; stroke-dasharray: none; stroke-linecap: butt; stroke-dashoffset: 0; stroke-linejoin: miter; stroke-miterlimit: 4; fill: rgb(255,182,182); fill-rule: nonzero; opacity: 1;" vector-effect="non-scaling-stroke"  transform=" translate(-570.06, -591.6)" d="M 511.71356 638.30236 C 520.4443176488336 640.3292327141786 529.6244302492967 638.3848208635774 536.7837142351915 632.9923265491199 C 543.9429982210863 627.5998322346625 548.3460328107885 619.3131868818176 548.80805 610.36216 L 652.17005 580.3684900000001 L 609.5885 544.10893 L 517.96236 578.15041 C 502.5348858566536 578.3756639614179 489.7141462441378 590.1043114920899 488.11989480839634 605.4508440043674 C 486.5256433726549 620.7973765166449 496.66181127917 634.9108678381289 511.71356 638.30241 Z" stroke-linecap="round" />
</g>
<g transform="matrix(1 0 0 1 567.22 585.29)"  >
<path style="stroke: none; stroke-width: 1; stroke-dasharray: none; stroke-linecap: butt; stroke-dashoffset: 0; stroke-linejoin: miter; stroke-miterlimit: 4; fill: rgb(202,202,202); fill-rule: nonzero; opacity: 1;" vector-effect="non-scaling-stroke"  transform=" translate(-627.22, -495.29)" d="M 703.4891 513.27475 L 654.32894 400.13486 C 650.3080436765266 390.8460998183498 643.1266417532007 383.2820322700913 634.05894 378.78476 C 631.2561428724769 377.40488806358167 628.3124150432301 376.3319909857574 625.27904 375.58476 C 624.80894 375.46476 624.33897 375.35476 623.86904 375.26469000000003 C 617.436757655175 373.8610791542459 610.765050580472 373.98441326280187 604.38904 375.62480000000005 C 592.6014165183014 378.6530231725034 582.6596240977203 386.554820879132 577.04904 397.35480000000007 C 577.0186672511117 397.3992105659817 576.99191438978 397.44599128812763 576.96904 397.49469000000005 C 570.684887927742 409.6515746705654 570.5475217308589 424.0703860980206 576.5989199999999 436.34479000000005 L 577.2090299999999 437.5647900000001 L 611.9490299999999 507.33479000000005 C 614.348331108934 512.1603704270439 614.5735785179426 517.7806793099837 612.5681457920326 522.7827900495665 C 610.5627130661226 527.7849007891493 606.5173437590354 531.6930455541491 601.4490299999999 533.5247300000001 L 599.0089699999999 534.4048600000001 L 555.1289699999999 550.25471 C 548.2854785712711 552.6967117572894 544.603464256011 560.1182027960913 546.7989699999998 567.04471 L 546.9089699999998 567.39481 L 559.2089699999998 606.75467 C 559.2689099999998 606.9347200000001 559.3288399999998 607.11478 559.3989099999998 607.29467 C 559.5070412294949 607.6343014189458 559.6407575024152 607.9652491944236 559.7989099999998 608.28467 C 562.4996234228034 614.3414835460748 569.2041352264205 617.5347281639342 575.6088399999998 615.81467 L 599.2888999999998 609.56467 L 604.1188499999998 608.28467 L 665.2688499999998 592.13477 C 681.5512798579249 587.8322372964586 695.1449580023396 576.6375716927348 702.4900180669762 561.4823942807025 C 709.8350781316127 546.32721686867 710.1998980433491 528.7210949247229 703.4889399999998 513.27466 Z" stroke-linecap="round" />
</g>
<g transform="matrix(1 0 0 1 505.6 788.22)"  >
<path style="stroke: none; stroke-width: 1; stroke-dasharray: none; stroke-linecap: butt; stroke-dashoffset: 0; stroke-linejoin: miter; stroke-miterlimit: 4; fill: rgb(63,61,86); fill-rule: nonzero; opacity: 1;" vector-effect="non-scaling-stroke"  transform=" translate(-565.6, -698.22)" d="M 219.629 608.28482 C 233.79943888517047 625.5685961741756 249.0818624952308 641.9099330704412 265.37900000000025 657.2048200000002 L 717.349 657.2048199999999 C 726.4155044157344 657.2190832739353 733.7602566700023 664.5683085807332 733.769 673.6348199999999 L 734.419 788.1648199999998 C 762.2236404150625 775.3902703726012 788.2622843813697 759.0787253656966 811.8889999999999 739.6348199999998 Q 821.729 731.5498199999998 830.9590000000001 722.7648199999999 Q 837.004 717.0348199999999 842.759 711.0248199999999 C 871.5228101467894 681.0599054037408 894.8148610866572 646.2876689381491 911.579 608.2848199999999 Z" stroke-linecap="round" />
</g>
<g transform="matrix(1 0 0 1 728.75 806.89)"  >
<path style="stroke: none; stroke-width: 1; stroke-dasharray: none; stroke-linecap: butt; stroke-dashoffset: 0; stroke-linejoin: miter; stroke-miterlimit: 4; fill: rgb(255,255,255); fill-rule: nonzero; opacity: 1;" vector-effect="non-scaling-stroke"  transform=" translate(-788.75, -716.89)" d="M 842.759 711.02475 Q 837.01406 717.03975 830.95907 722.76475 L 734.749 722.76475 L 734.749 711.02475 Z" stroke-linecap="round" />
</g>
<g transform="matrix(1 0 0 1 404.59 523.52)"  >
<path style="stroke: none; stroke-width: 1; stroke-dasharray: none; stroke-linecap: butt; stroke-dashoffset: 0; stroke-linejoin: miter; stroke-miterlimit: 4; fill: rgb(63,61,86); fill-rule: nonzero; opacity: 1;" vector-effect="non-scaling-stroke"  transform=" translate(-464.59, -433.52)" d="M 633.379 335.53476 C 632.4108556801506 333.74764957778075 630.541502637204 332.6345208530906 628.509 332.63486 L 300.669 332.63486 C 297.60878751235254 332.64285315849804 295.13151839321307 335.1245581097064 295.12899999999996 338.18478 L 295.12899999999996 534.40488 L 634.05892 534.40488 L 634.05892 338.18478 C 634.0641699272977 337.2576397957794 633.8299730042069 336.3448463345937 633.379 335.53476 Z" stroke-linecap="round" />
</g>
<g transform="matrix(1 0 0 1 404.74 661.57)"  >
<path style="stroke: none; stroke-width: 1; stroke-dasharray: none; stroke-linecap: butt; stroke-dashoffset: 0; stroke-linejoin: miter; stroke-miterlimit: 4; fill: rgb(63,61,86); fill-rule: nonzero; opacity: 1;" vector-effect="non-scaling-stroke"  transform=" translate(-464.74, -571.57)" d="M 294.83213 529.09239 L 294.83213 553.3062 C 294.83210878256506 555.3334828093244 295.6374275011178 557.2777409442809 297.07092354619175 558.7112557430152 C 298.5044195912656 560.1447705417495 300.4486671905715 560.950114695754 302.47595 560.95012 L 427.57266 560.95012 L 427.57266 608.73671 L 425.91080999999997 608.73671 C 425.64745575628143 608.7366834762034 425.3948790338652 608.8412833191447 425.2086519598901 609.0274953899317 C 425.022424885915 609.2137074607185 424.9178046939157 609.4662757549993 424.91781 609.72963 L 424.91781 613.0533700000001 C 424.91778347352493 613.316738105549 425.02239429759703 613.56932695375 425.2086236719236 613.7555563280765 C 425.3948530462501 613.9417857024031 425.647441894451 614.0463965264752 425.91080999999997 614.0463700000001 L 503.56921 614.0463700000001 C 503.83257729238267 614.0463938733933 504.08516459903564 613.941782197339 504.27139339818723 613.7555533981873 C 504.4576221973389 613.5693245990357 504.56223387339315 613.3167372923828 504.56221 613.0533700000001 L 504.56221 609.72963 C 504.5622153060843 609.4662757549993 504.457595114085 609.2137074607185 504.27136804010985 609.0274953899317 C 504.08514096613476 608.8412833191447 503.83256424371854 608.7366834762034 503.56921 608.73671 L 501.90736 608.73671 L 501.90736 560.95012 L 627.00407 560.95012 C 629.0313528094285 560.950114695754 630.9756004087344 560.1447705417495 632.4090964538083 558.7112557430152 C 633.8425924988821 557.2777409442809 634.6479112174349 555.3334828093244 634.64789 553.3062 L 634.64789 529.09239 Z" stroke-linecap="round" />
</g>
<g transform="matrix(1 0 0 1 400.63 518.29)"  >
<circle style="stroke: none; stroke-width: 1; stroke-dasharray: none; stroke-linecap: butt; stroke-dashoffset: 0; stroke-linejoin: miter; stroke-miterlimit: 4; fill: rgb(108,99,255); fill-rule: nonzero; opacity: 1;" vector-effect="non-scaling-stroke"  cx="0" cy="0" r="31.30642" />
</g>
<g transform="matrix(1 0 0 1 396.9 314.73)"  >
<path style="stroke: none; stroke-width: 1; stroke-dasharray: none; stroke-linecap: butt; stroke-dashoffset: 0; stroke-linejoin: miter; stroke-miterlimit: 4; fill: rgb(108,99,255); fill-rule: nonzero; opacity: 1;" vector-effect="non-scaling-stroke"  transform=" translate(-456.9, -224.73)" d="M 540.399 252.58481 L 535.399 252.58481 C 535.399 214.78481 497.98900000000003 190.01481 460.249 189.99481 C 454.759637971135 189.97876079576935 449.2824154103808 190.51140812736566 443.89899999999994 191.58481 C 437.839 192.79481 431.549 194.24481 425.369 196.13481000000002 C 400.999 203.60481000000001 378.399 218.04481 378.399 252.58481 C 378.39379678134355 259.2927191011769 379.2474024011358 265.9736953694722 380.939 272.46481 L 376.09900000000005 273.72481 C 374.3037864302194 266.8216127478442 373.39646420039406 259.7176157335818 373.39900000000006 252.58481000000006 C 373.39900000000006 222.40481 385.78900000000004 201.67481 407.1890000000001 189.31481 C 418.4390000000001 182.81481 432.1690000000001 178.62481 447.89900000000006 176.58481 C 454.4448216592067 175.71397223419922 461.06238698410965 175.51293227496166 467.649 175.98480999999998 C 511.049 179.10477 540.399 212.38479 540.399 252.58481 Z" stroke-linecap="round" />
</g>
<g transform="matrix(1 0 0 1 474.3 340.66)"  >
<path style="stroke: none; stroke-width: 1; stroke-dasharray: none; stroke-linecap: butt; stroke-dashoffset: 0; stroke-linejoin: miter; stroke-miterlimit: 4; fill: rgb(108,99,255); fill-rule: nonzero; opacity: 1;" vector-effect="non-scaling-stroke"  transform=" translate(-534.3, -250.66)" d="M 548.729 255.35477 L 546.759 240.79477 C 546.273077866659 237.11779606382572 544.5019050097778 233.73131356146885 541.759 231.23477 C 538.1911565894377 227.93707110580584 533.3056073578202 226.46218831890246 528.509 227.23477 L 525.379 227.66477 C 523.6490183850776 227.89247183343886 522.0823373419539 228.80366793438205 521.029 230.19477 C 519.9667300593089 231.58110293673914 519.5023147736055 233.33436064323203 519.739 235.06477 L 524.289 268.60477000000003 C 524.6735081099237 271.4082475944236 526.8080694515571 273.65155074025347 529.5889999999999 274.17477 C 529.9906595140184 274.255272837196 530.3993531046085 274.29547220676227 530.809 274.29477 C 531.103353638063 274.2947221437461 531.397363961646 274.27467598532 531.689 274.23477 L 535.189 273.76477 C 539.5019157449341 273.19245736084935 543.3876328548487 270.8660922754908 545.929 267.33477 C 546.199 266.95477 546.459 266.56477 546.699 266.16472 C 548.5732829069067 262.8926705017455 549.2885380092722 259.0838666131665 548.729 255.35477 Z" stroke-linecap="round" />
</g>
<g transform="matrix(1 0 0 1 464.63 341.22)"  >
<path style="stroke: none; stroke-width: 1; stroke-dasharray: none; stroke-linecap: butt; stroke-dashoffset: 0; stroke-linejoin: miter; stroke-miterlimit: 4; fill: rgb(255,255,255); fill-rule: nonzero; opacity: 1;" vector-effect="non-scaling-stroke"  transform=" translate(-524.63, -251.22)" d="M 523.359 228.27481 C 522.440993292609 228.72087160853067 521.6423236548961 229.3790028121396 521.029 230.19481 C 519.9667300593089 231.58114293673913 519.5023147736055 233.33440064323202 519.739 235.06481 L 524.289 268.60481 C 524.6735081099237 271.40828759442354 526.8080694515571 273.6515907402534 529.5889999999999 274.17481 Z" stroke-linecap="round" />
</g>
<g transform="matrix(1 0 0 1 485.34 338.7)"  >
<path style="stroke: none; stroke-width: 1; stroke-dasharray: none; stroke-linecap: butt; stroke-dashoffset: 0; stroke-linejoin: miter; stroke-miterlimit: 4; fill: rgb(63,61,86); fill-rule: nonzero; opacity: 1;" vector-effect="non-scaling-stroke"  transform=" translate(-545.34, -248.7)" d="M 548.729 255.35477 L 546.759 240.79477 C 546.273077866659 237.11779606382572 544.5019050097778 233.73131356146885 541.759 231.23477 L 546.289 264.60477 C 546.3568822531429 265.14045754628194 546.4947242323448 265.66492946714754 546.699 266.16477 C 548.573294109147 262.8927063632175 549.288549576566 259.083882913563 548.729 255.35477 Z" stroke-linecap="round" />
</g>
<g transform="matrix(0.99 -0.13 0.13 0.99 472.22 348.91)"  >
<ellipse style="stroke: none; stroke-width: 1; stroke-dasharray: none; stroke-linecap: butt; stroke-dashoffset: 0; stroke-linejoin: miter; stroke-miterlimit: 4; fill: rgb(63,61,86); fill-rule: nonzero; opacity: 1;" vector-effect="non-scaling-stroke"  cx="0" cy="0" rx="2.5" ry="7" />
</g>
<g transform="matrix(0.99 -0.13 0.13 0.99 469.22 330.91)"  >
<ellipse style="stroke: none; stroke-width: 1; stroke-dasharray: none; stroke-linecap: butt; stroke-dashoffset: 0; stroke-linejoin: miter; stroke-miterlimit: 4; fill: rgb(63,61,86); fill-rule: nonzero; opacity: 1;" vector-effect="non-scaling-stroke"  cx="0" cy="0" rx="2.5" ry="7" />
</g>
<g transform="matrix(0.99 -0.13 0.13 0.99 488.22 337.91)"  >
<ellipse style="stroke: none; stroke-width: 1; stroke-dasharray: none; stroke-linecap: butt; stroke-dashoffset: 0; stroke-linejoin: miter; stroke-miterlimit: 4; fill: rgb(63,61,86); fill-rule: nonzero; opacity: 1;" vector-effect="non-scaling-stroke"  cx="0" cy="0" rx="2.5" ry="7" />
</g>
<g transform="matrix(1 0 0 1 378.8 275.94)"  >
<path style="stroke: none; stroke-width: 1; stroke-dasharray: none; stroke-linecap: butt; stroke-dashoffset: 0; stroke-linejoin: miter; stroke-miterlimit: 4; fill: rgb(63,61,86); fill-rule: nonzero; opacity: 1;" vector-effect="non-scaling-stroke"  transform=" translate(-438.8, -185.94)" d="M 460.249 189.99478 C 454.759637971135 189.97873079576934 449.2824154103808 190.51137812736565 443.89899999999994 191.58478000000002 C 437.839 192.79478 431.549 194.24478 425.369 196.13478 C 415.71900000000005 195.66478 408.619 193.16478 407.189 189.31478 C 418.439 182.81478 432.16900000000004 178.62478000000002 447.899 176.58478000000002 C 454.44482165920664 175.71394223419924 461.0623869841096 175.51290227496168 467.64899999999994 175.98478 C 469.0593258171938 176.8115342520504 470.04910573366516 178.20159281121244 470.369 179.80478000000002 C 470.839 183.28482 466.869 186.98477 460.249 189.99478 Z" stroke-linecap="round" />
</g>
<g transform="matrix(1 0 0 1 321.81 363.18)"  >
<path style="stroke: none; stroke-width: 1; stroke-dasharray: none; stroke-linecap: butt; stroke-dashoffset: 0; stroke-linejoin: miter; stroke-miterlimit: 4; fill: rgb(108,99,255); fill-rule: nonzero; opacity: 1;" vector-effect="non-scaling-stroke"  transform=" translate(-381.81, -273.18)" d="M 396.409 287.28482 L 388.709 255.27482000000003 C 388.14756467538433 252.9135036328044 386.2237864254046 251.11981694481105 383.829 250.72482000000002 C 383.49811972909123 250.67332405878187 383.1638588908683 250.64658319172403 382.829 250.64482 C 382.3572879348373 250.6464931752889 381.8874039421154 250.70355051726227 381.42900000000003 250.81482 L 378.449 251.53482 C 370.460080775837 253.4669542121362 365.54335512125255 261.5019308050695 367.459 269.49482 L 370.909 283.85482 C 371.6967253598303 287.2355305841598 373.5728334373231 290.264022238353 376.24899999999997 292.47487 C 376.68268653496693 292.8249000297117 377.1368229045992 293.14880611687596 377.609 293.44487000000004 C 380.9954510646505 295.5672998654266 385.09598416378043 296.23088657627966 388.979 295.28487 L 391.949 294.56487 C 392.7343058352241 294.381629660573 393.47315397646736 294.03774181603126 394.119 293.55487 C 396.0833075006201 292.1227045027519 396.987926236741 289.6458465523524 396.409 287.28482 Z" stroke-linecap="round" />
</g>
<g transform="matrix(0.97 -0.23 0.23 0.97 318.63 364.52)"  >
<ellipse style="stroke: none; stroke-width: 1; stroke-dasharray: none; stroke-linecap: butt; stroke-dashoffset: 0; stroke-linejoin: miter; stroke-miterlimit: 4; fill: rgb(63,61,86); fill-rule: nonzero; opacity: 1;" vector-effect="non-scaling-stroke"  cx="0" cy="0" rx="2.5" ry="7" />
</g>
<g transform="matrix(0.97 -0.23 0.23 0.97 308.63 367.52)"  >
<ellipse style="stroke: none; stroke-width: 1; stroke-dasharray: none; stroke-linecap: butt; stroke-dashoffset: 0; stroke-linejoin: miter; stroke-miterlimit: 4; fill: rgb(63,61,86); fill-rule: nonzero; opacity: 1;" vector-effect="non-scaling-stroke"  cx="0" cy="0" rx="2.5" ry="7" />
</g>
<g transform="matrix(1 0 0 1 330.5 362.09)"  >
<path style="stroke: none; stroke-width: 1; stroke-dasharray: none; stroke-linecap: butt; stroke-dashoffset: 0; stroke-linejoin: miter; stroke-miterlimit: 4; fill: rgb(255,255,255); fill-rule: nonzero; opacity: 1;" vector-effect="non-scaling-stroke"  transform=" translate(-390.5, -272.09)" d="M 396.899 287.16476 L 389.199 255.15476 C 388.58562104941643 252.6001153971404 386.5013417089515 250.6616174094112 383.909 250.23476000000002 L 394.419 293.95476 C 396.54152524434414 292.40031179882465 397.5200261040961 289.7212711384555 396.899 287.16476 Z" stroke-linecap="round" />
</g>
<g transform="matrix(1 0 0 1 311.64 366.59)"  >
<path style="stroke: none; stroke-width: 1; stroke-dasharray: none; stroke-linecap: butt; stroke-dashoffset: 0; stroke-linejoin: miter; stroke-miterlimit: 4; fill: rgb(63,61,86); fill-rule: nonzero; opacity: 1;" vector-effect="non-scaling-stroke"  transform=" translate(-371.64, -276.59)" d="M 369.199 263.15481 C 368.9864960191327 262.26464624471816 368.58773380406495 261.4296313499181 368.029 260.70481 C 366.9465906831839 263.5080206691698 366.7476897101793 266.5752830423453 367.459 269.49481000000003 L 370.909 283.85481000000004 C 371.6967253598303 287.2355205841598 373.5728334373231 290.264012238353 376.24899999999997 292.47486000000004 Z" stroke-linecap="round" />
</g>
</svg>